<svg version="1.1" xmlns="http://www.w3.org/2000/svg" style="display: block;" viewBox="0 0 2048 2048" width="1024" height="1024" preserveAspectRatio="none" xmlns:c2pa="http://c2pa.org/manifest"><metadata><c2pa:manifest>AAAMZ2p1bWIAAAAeanVtZGMycGEAEQAQgAAAqgA4m3EDYzJwYQAAAAxBanVtYgAAAEdqdW1kYzJtYQARABCAAACqADibcQN1cm46YzJwYToyODRjMjBlYS0zZmQ4LTRlYTYtOGQ3OS01MWU2NzRjNmNhNTMAAAAB4mp1bWIAAAApanVtZGMyYXMAEQAQgAAAqgA4m3EDYzJwYS5hc3NlcnRpb25zAAAAAO1qdW1iAAAAQWp1bWRjYm9yABEAEIAAAKoAOJtxE2MycGEuYWN0aW9ucy52MgAAAAAYYzJzaNfXDZQpKTaADq3LKsG2UNgAAACkY2JvcqFnYWN0aW9uc4GjZmFjdGlvbmxjMnBhLmNyZWF0ZWRxZGlnaXRhbFNvdXJjZVR5cGV4Rmh0dHA6Ly9jdi5pcHRjLm9yZy9uZXdzY29kZXMvZGlnaXRhbHNvdXJjZXR5cGUvdHJhaW5lZEFsZ29yaXRobWljTWVkaWFrZGVzY3JpcHRpb252Q3JlYXRlZCBieSBSZWNyYWZ0IEFJLgAAAMRqdW1iAAAAQGp1bWRjYm9yABEAEIAAAKoAOJtxE2MycGEuaGFzaC5kYXRhAAAAABhjMnNoR2tOFE876j3Bi4iATgX/0QAAAHxjYm9ypWpleGNsdXNpb25zgaJlc3RhcnQY22ZsZW5ndGgZEIxkbmFtZW5qdW1iZiBtYW5pZmVzdGNhbGdmc2hhMjU2ZGhhc2hYIB5eCYFJtjm39ZFSQWw52hr8AGx5edfyzWhucl2YWj65Y3BhZEkAAAAAAAAAAAAAAAI0anVtYgAAACdqdW1kYzJjbAARABCAAACqADibcQNjMnBhLmNsYWltLnYyAAAAAgVjYm9ypmppbnN0YW5jZUlEeCx4bXA6aWlkOjU2MzE1Y2Q0LTVhNTQtNDlmNi04ZjQ1LTBmMjExMjM3NmU3OHRjbGFpbV9nZW5lcmF0b3JfaW5mb6NkbmFtZWpyZWNyYWZ0LmFpZ3ZlcnNpb254KDgxY2U4MmUyYzVjM2NiZmJlOGM2ZmJlMTc5ZDVmOGQ5MWM0MDljZTF3b3JnLmNvbnRlbnRhdXRoLmMycGFfcnNmMC45MC43aXNpZ25hdHVyZXhNc2VsZiNqdW1iZj0vYzJwYS91cm46YzJwYToyODRjMjBlYS0zZmQ4LTRlYTYtOGQ3OS01MWU2NzRjNmNhNTMvYzJwYS5zaWduYXR1cmVyY3JlYXRlZF9hc3NlcnRpb25zgqJjdXJseCpzZWxmI2p1bWJmPWMycGEuYXNzZXJ0aW9ucy9jMnBhLmFjdGlvbnMudjJkaGFzaFgg+8bkYR7VBKGfK0tueDvHy6sm0pGwXHg6U5qEUiUqWBGiY3VybHgpc2VsZiNqdW1iZj1jMnBhLmFzc2VydGlvbnMvYzJwYS5oYXNoLmRhdGFkaGFzaFggGp2B73siAVkyWv/Ks2SoyJJnfsv3aBYCoGXnGeIXqBloZGM6dGl0bGV4GlJlY3JhZnQgQUkgR2VuZXJhdGVkIEltYWdlY2FsZ2ZzaGEyNTYAAAfcanVtYgAAAChqdW1kYzJjcwARABCAAACqADibcQNjMnBhLnNpZ25hdHVyZQAAAAesY2JvctKEWQOwogEmGCGCWQHnMIIB4zCCAYmgAwIBAgIJALfeWmNDUW56MAoGCCqGSM49BAMCMEAxHzAdBgNVBAMMFlJlY3JhZnQgU3RhZ2luZyBEZXYgQ0ExEDAOBgNVBAoMB1JlY3JhZnQxCzAJBgNVBAYTAlVTMB4XDTI2MDYxMjE5NDM1MFoXDTI3MDYxMjE5NDM1MFowNzELMAkGA1UEBhMCVVMxEzARBgNVBAoTClJlY3JhZnQgQUkxEzARBgNVBAMTCnJlY3JhZnQuYWkwWTATBgcqhkjOPQIBBggqhkjOPQMBBwNCAARKaTVbACsg/DeG3LeOxYdID/VA6EFG73E6Oknb+KIiCFJygRUz4ueN2z/t2qYb6CIUvS8RvgOiiClfoqsYtw81o3UwczAMBgNVHRMBAf8EAjAAMA4GA1UdDwEB/wQEAwIGwDATBgNVHSUEDDAKBggrBgEFBQcDBDAdBgNVHQ4EFgQULzHpBen96SL1y4IPHa8MkMshXf0wHwYDVR0jBBgwFoAUAgsqOBrKqpdK//m/kxZo7ZR4ebcwCgYIKoZIzj0EAwIDSAAwRQIgU8hKW0aXvvk8SQgVFNkax69Ym9ae8GsT2RZTQw+B51ACIQC0D4BkEoRD4N0r2ZRkNy0HZaW3WICy/QZGN95ilF4yzFkBvTCCAbkwggFfoAMCAQICCQCc+Wg7T6ATbzAKBggqhkjOPQQDAjBAMR8wHQYDVQQDDBZSZWNyYWZ0IFN0YWdpbmcgRGV2IENBMRAwDgYDVQQKDAdSZWNyYWZ0MQswCQYDVQQGEwJVUzAeFw0yNjA2MTIxOTQwMTZaFw0yODA2MTExOTQwMTZaMEAxHzAdBgNVBAMMFlJlY3JhZnQgU3RhZ2luZyBEZXYgQ0ExEDAOBgNVBAoMB1JlY3JhZnQxCzAJBgNVBAYTAlVTMFkwEwYHKoZIzj0CAQYIKoZIzj0DAQcDQgAEQ9IQBlcVbKaKPYrQSfOhL/00s7xUDC7RinIuLO/I1k99y9yh6oWF9kPxaP+tx1v1PeOL3yrVquJ730H0ZGiDyqNCMEAwDwYDVR0TAQH/BAUwAwEB/zAOBgNVHQ8BAf8EBAMCAYYwHQYDVR0OBBYEFAILKjgayqqXSv/5v5MWaO2UeHm3MAoGCCqGSM49BAMCA0gAMEUCIFQwNImLlYDeQhjgF+ZiqTbgcuzSqmOJw3Q2lQ/hu83FAiEA9O8cLm/xfoVLqB4jtdbuHzi3WL+p2RN+DRGkwpYswVuhY3BhZFkDpAAAAAAAAAAAAAAAAAAAAAAAAAAAAAAAAAAAAAAAAAAAAAAAAAAAAAAAAAAAAAAAAAAAAAAAAAAAAAAAAAAAAAAAAAAAAAAAAAAAAAAAAAAAAAAAAAAAAAAAAAAAAAAAAAAAAAAAAAAAAAAAAAAAAAAAAAAAAAAAAAAAAAAAAAAAAAAAAAAAAAAAAAAAAAAAAAAAAAAAAAAAAAAAAAAAAAAAAAAAAAAAAAAAAAAAAAAAAAAAAAAAAAAAAAAAAAAAAAAAAAAAAAAAAAAAAAAAAAAAAAAAAAAAAAAAAAAAAAAAAAAAAAAAAAAAAAAAAAAAAAAAAAAAAAAAAAAAAAAAAAAAAAAAAAAAAAAAAAAAAAAAAAAAAAAAAAAAAAAAAAAAAAAAAAAAAAAAAAAAAAAAAAAAAAAAAAAAAAAAAAAAAAAAAAAAAAAAAAAAAAAAAAAAAAAAAAAAAAAAAAAAAAAAAAAAAAAAAAAAAAAAAAAAAAAAAAAAAAAAAAAAAAAAAAAAAAAAAAAAAAAAAAAAAAAAAAAAAAAAAAAAAAAAAAAAAAAAAAAAAAAAAAAAAAAAAAAAAAAAAAAAAAAAAAAAAAAAAAAAAAAAAAAAAAAAAAAAAAAAAAAAAAAAAAAAAAAAAAAAAAAAAAAAAAAAAAAAAAAAAAAAAAAAAAAAAAAAAAAAAAAAAAAAAAAAAAAAAAAAAAAAAAAAAAAAAAAAAAAAAAAAAAAAAAAAAAAAAAAAAAAAAAAAAAAAAAAAAAAAAAAAAAAAAAAAAAAAAAAAAAAAAAAAAAAAAAAAAAAAAAAAAAAAAAAAAAAAAAAAAAAAAAAAAAAAAAAAAAAAAAAAAAAAAAAAAAAAAAAAAAAAAAAAAAAAAAAAAAAAAAAAAAAAAAAAAAAAAAAAAAAAAAAAAAAAAAAAAAAAAAAAAAAAAAAAAAAAAAAAAAAAAAAAAAAAAAAAAAAAAAAAAAAAAAAAAAAAAAAAAAAAAAAAAAAAAAAAAAAAAAAAAAAAAAAAAAAAAAAAAAAAAAAAAAAAAAAAAAAAAAAAAAAAAAAAAAAAAAAAAAAAAAAAAAAAAAAAAAAAAAAAAAAAAAAAAAAAAAAAAAAAAAAAAAAAAAAAAAAAAAAAAAAAAAAAAAAAAAAAAAAAAAAAAAAAAAAAAAAAAAAAAAAAAAAAAAAAAAAAAAAAAAAAAAAAAAAAAAAAAAAAAAAAAAAAAAAAAAAAAAAAAAAAAAAAAAAAAAAAAAAA9lhA8+RI6LfJBlmUKa/daVO7i0JnresHQJDoMQFnNyid8q6Kmg2THD7GIAwSfKWygaGeBDi7Esk/BBcF4qyPpVk1NA==</c2pa:manifest></metadata>
<defs>
	<linearGradient id="Gradient1" gradientUnits="userSpaceOnUse" x1="1218.63" y1="1525.01" x2="1254.93" y2="1590.38">
		<stop class="stop0" offset="0" stop-opacity="0.756863" stop-color="rgb(128,131,208)"/>
		<stop class="stop1" offset="1" stop-opacity="0.976471" stop-color="rgb(67,94,255)"/>
	</linearGradient>
	<linearGradient id="Gradient2" gradientUnits="userSpaceOnUse" x1="721.072" y1="1756.75" x2="761.915" y2="1656.81">
		<stop class="stop0" offset="0" stop-opacity="0" stop-color="rgb(196,200,255)"/>
		<stop class="stop1" offset="1" stop-opacity="0.0196078" stop-color="rgb(124,139,251)"/>
	</linearGradient>
	<linearGradient id="Gradient3" gradientUnits="userSpaceOnUse" x1="1310.68" y1="1763.15" x2="1266.26" y2="1629.44">
		<stop class="stop0" offset="0" stop-opacity="0" stop-color="rgb(191,195,255)"/>
		<stop class="stop1" offset="1" stop-opacity="0.0117647" stop-color="rgb(96,119,253)"/>
	</linearGradient>
	<linearGradient id="Gradient4" gradientUnits="userSpaceOnUse" x1="1780.82" y1="1336.05" x2="1651.1" y2="1288.95">
		<stop class="stop0" offset="0" stop-opacity="0.780392" stop-color="rgb(224,227,250)"/>
		<stop class="stop1" offset="1" stop-opacity="1" stop-color="rgb(115,129,251)"/>
	</linearGradient>
	<linearGradient id="Gradient5" gradientUnits="userSpaceOnUse" x1="1029.62" y1="1557.85" x2="1019.52" y2="1926.1">
		<stop class="stop0" offset="0" stop-opacity="1" stop-color="rgb(204,96,0)"/>
		<stop class="stop1" offset="1" stop-opacity="1" stop-color="rgb(255,159,2)"/>
	</linearGradient>
	<linearGradient id="Gradient6" gradientUnits="userSpaceOnUse" x1="263.322" y1="713.89" x2="442.596" y2="782.257">
		<stop class="stop0" offset="0" stop-opacity="0.92549" stop-color="rgb(225,226,251)"/>
		<stop class="stop1" offset="1" stop-opacity="1" stop-color="rgb(81,104,253)"/>
	</linearGradient>
	<linearGradient id="Gradient7" gradientUnits="userSpaceOnUse" x1="1585.33" y1="1383.17" x2="1573.06" y2="1373.35">
		<stop class="stop0" offset="0" stop-opacity="1" stop-color="rgb(31,61,254)"/>
		<stop class="stop1" offset="1" stop-opacity="1" stop-color="rgb(72,95,244)"/>
	</linearGradient>
	<linearGradient id="Gradient8" gradientUnits="userSpaceOnUse" x1="488.601" y1="1043.85" x2="132.303" y2="1005.04">
		<stop class="stop0" offset="0" stop-opacity="1" stop-color="rgb(205,98,0)"/>
		<stop class="stop1" offset="1" stop-opacity="1" stop-color="rgb(255,155,2)"/>
	</linearGradient>
	<linearGradient id="Gradient9" gradientUnits="userSpaceOnUse" x1="1557.03" y1="1035.42" x2="1917.62" y2="1013.72">
		<stop class="stop0" offset="0" stop-opacity="1" stop-color="rgb(204,97,0)"/>
		<stop class="stop1" offset="1" stop-opacity="1" stop-color="rgb(255,156,2)"/>
	</linearGradient>
	<linearGradient id="Gradient10" gradientUnits="userSpaceOnUse" x1="1023.04" y1="487.08" x2="1025.95" y2="121.984">
		<stop class="stop0" offset="0" stop-opacity="1" stop-color="rgb(206,98,0)"/>
		<stop class="stop1" offset="1" stop-opacity="1" stop-color="rgb(255,160,3)"/>
	</linearGradient>
	<linearGradient id="Gradient11" gradientUnits="userSpaceOnUse" x1="644.356" y1="1393.46" x2="379.683" y2="1676.7">
		<stop class="stop0" offset="0" stop-opacity="1" stop-color="rgb(204,96,0)"/>
		<stop class="stop1" offset="1" stop-opacity="1" stop-color="rgb(255,159,2)"/>
	</linearGradient>
	<linearGradient id="Gradient12" gradientUnits="userSpaceOnUse" x1="1394.12" y1="1402.74" x2="1677.38" y2="1667.66">
		<stop class="stop0" offset="0" stop-opacity="1" stop-color="rgb(205,97,0)"/>
		<stop class="stop1" offset="1" stop-opacity="1" stop-color="rgb(255,158,2)"/>
	</linearGradient>
	<linearGradient id="Gradient13" gradientUnits="userSpaceOnUse" x1="640.732" y1="654.916" x2="383.698" y2="366.808">
		<stop class="stop0" offset="0" stop-opacity="1" stop-color="rgb(205,96,0)"/>
		<stop class="stop1" offset="1" stop-opacity="1" stop-color="rgb(255,159,3)"/>
	</linearGradient>
	<linearGradient id="Gradient14" gradientUnits="userSpaceOnUse" x1="1398.25" y1="648.249" x2="1672.25" y2="374.251">
		<stop class="stop0" offset="0" stop-opacity="1" stop-color="rgb(205,96,0)"/>
		<stop class="stop1" offset="1" stop-opacity="1" stop-color="rgb(255,161,3)"/>
	</linearGradient>
	<linearGradient id="Gradient15" gradientUnits="userSpaceOnUse" x1="775.587" y1="437.094" x2="706.889" y2="264.463">
		<stop class="stop0" offset="0" stop-opacity="1" stop-color="rgb(84,107,252)"/>
		<stop class="stop1" offset="1" stop-opacity="1" stop-color="rgb(228,230,252)"/>
	</linearGradient>
</defs>
<path transform="translate(0,0)" fill="rgb(189,194,246)" fill-opacity="0.00784314" d="M 0 0 L 2048 0 L 2048 2048 L 0 2048 L 0 0 z M 212.983 944.703 C 220.054 944.956 226.103 945.141 233.168 944.901 C 277.545 945.058 323.226 944.154 367.369 944.858 C 367.099 942.58 367.329 939.607 367.621 937.26 C 380.353 834.985 422.207 732.803 481.3 648.585 C 485.266 642.932 502.205 619.452 506.195 616.14 C 485.552 594.909 463.68 574.556 442.739 553.59 C 436.355 547.198 429.712 540.603 423.009 534.588 C 417.698 528.784 413.761 524.888 407.967 519.554 C 405.833 517.16 394.089 505.044 391.717 504.051 C 373.287 514.865 384.225 508.648 372.919 527.134 C 368.528 533.655 363.642 538.197 358.859 544.247 C 352.055 552.853 345.493 562.166 339.414 571.304 C 292.126 641.153 256.937 718.466 235.324 800.001 C 229.752 821.025 224.915 843.999 221.069 865.408 C 217.41 885.778 205.243 916.57 210.856 936.464 C 211.639 939.19 212.348 941.938 212.983 944.703 z M 648.269 1511.7 C 645.35 1513.68 591.872 1566.19 589.83 1569.36 C 586.036 1572.69 579.555 1578.93 576.12 1582.61 C 570.82 1587.77 547.643 1609.85 544.541 1614.12 C 542.492 1622.33 531.801 1622.99 531.733 1633.92 C 543.681 1663.92 676.106 1738.94 709.02 1752.1 C 767.875 1775.64 837.391 1796.29 900.541 1805.28 C 913.349 1807.1 929.282 1808.17 942.438 1809.48 C 943.405 1802.8 943.007 1788.64 943.01 1781.43 L 943 1730.33 C 942.688 1696.79 944.181 1662.3 943.837 1628 C 948.764 1638.96 941.035 1748.42 945.703 1755.74 C 947.39 1712.43 943.912 1665.53 946.489 1621.79 C 946.86 1620.79 948.421 1612.7 948.747 1611.13 C 950.132 1607.23 951.726 1603.2 953.485 1599.85 C 964.249 1579.34 983.422 1564.71 1005.5 1558.26 C 1006.07 1557.98 1006.64 1557.7 1007.21 1557.42 C 1022.15 1555.56 1026.99 1555.5 1041.88 1557.44 C 1046.11 1559.24 1052.03 1560.65 1056.89 1562.57 C 1059.08 1564.38 1062.68 1565.78 1065.37 1567.36 C 1070.34 1570.27 1073.55 1573.09 1077.85 1576.71 C 1083.51 1583 1087.19 1586.72 1092.38 1593.67 C 1097.05 1602.44 1099.64 1608.18 1102.51 1617.82 C 1106.79 1642.33 1102.37 1662.01 1104.7 1683.41 C 1104.71 1688.16 1104.81 1692.9 1104.99 1697.65 C 1103.77 1732.8 1104.76 1769.76 1104.64 1804.99 C 1105.38 1805.51 1105.88 1805.9 1106.75 1806.25 C 1113.19 1808.86 1131.39 1807.04 1138.53 1806.42 C 1191.1 1801.84 1254.98 1784.16 1304.48 1765.76 C 1330.3 1756.16 1355.8 1744.78 1381.21 1734.1 C 1398.01 1727.04 1488.9 1668.16 1495.21 1652.76 C 1496.49 1652.58 1497.77 1652.37 1499.04 1652.13 C 1521.19 1647.83 1505.74 1627.43 1499.84 1614.06 L 1500.91 1611.29 L 1495.51 1606.1 L 1483.88 1594.52 C 1481.69 1592.24 1473.92 1584.09 1471.94 1582.82 C 1469.63 1580.13 1463.82 1573.82 1461.1 1571.68 C 1454.63 1564.43 1443.92 1554.23 1436.66 1547.29 L 1399.87 1511.29 C 1397.42 1508.73 1392.23 1502.93 1389.76 1500.81 C 1385.79 1508.12 1376.31 1513.75 1372.67 1522.22 L 1369.95 1519.8 C 1353.07 1530.45 1336.75 1539.9 1320.15 1551.25 C 1313.57 1555.75 1283.81 1575.98 1279.06 1577.76 C 1286.8 1568.1 1333.29 1541.54 1348.16 1529.33 L 1348.34 1526.23 C 1352.28 1523.02 1372.11 1505.74 1374.47 1504.74 L 1375.44 1507.59 C 1379.04 1503.99 1383.84 1500.05 1385.42 1495.49 C 1377.31 1482.62 1374.19 1472.35 1372.9 1457.46 L 1371.23 1449.75 C 1372.09 1445.6 1371.91 1444.5 1371.72 1440.18 C 1360.24 1454.63 1347.6 1450.96 1333.6 1459.9 C 1322.12 1467.22 1310.8 1476.29 1299.7 1484.29 C 1258.14 1514.28 1207.88 1532.96 1158.48 1545.46 C 1147.82 1548.16 1137.07 1552.18 1126.31 1554.48 C 1120.36 1552.96 1114.21 1551.63 1108.3 1550.23 C 1101.94 1547.64 1093.02 1547.14 1102.67 1540.7 L 1102.83 1540.79 C 1104.57 1540.63 1106.87 1536.32 1106.33 1534.96 C 1103.89 1528.73 1095.31 1528.75 1094.39 1522.22 C 1094.31 1521.56 1094.23 1520.89 1094.15 1520.23 C 1100.2 1519.66 1125.59 1519 1127.01 1512.91 C 1125.77 1511.76 1124.78 1511.55 1123.11 1510.8 L 1121.59 1511.86 L 1120.43 1510.47 L 1121.84 1509.43 L 1122.06 1511.03 C 1122.68 1510.92 1123.29 1510.81 1123.91 1510.69 C 1128.25 1507.56 1135.33 1506.79 1140.88 1506.56 C 1137.98 1507.78 1136.19 1508.66 1133.38 1510.12 L 1133.77 1510.92 C 1162.27 1509.44 1200.61 1493.3 1225.8 1479.65 C 1228.48 1478.2 1228.04 1478.65 1231.23 1478.26 C 1224.35 1477.61 1220.97 1479.58 1214.75 1479.32 L 1213.23 1479.75 C 1201.52 1483.14 1184.78 1490.97 1171.39 1495.19 C 1146.9 1502.9 1126.22 1507.08 1100.93 1511.45 C 1096.08 1512.19 1090.81 1512.74 1086.12 1513.5 C 1076.8 1514.82 1065.19 1515.17 1056.72 1516.66 C 1043.78 1518.15 1022.18 1517.93 1009.14 1517.42 C 939.786 1514.56 871.715 1497.82 808.952 1468.18 C 790.044 1459.35 773.858 1448.18 755.911 1438.6 C 741.659 1428.11 724.906 1415.89 710.397 1405.92 C 704.629 1400.92 698.82 1395.96 692.97 1391.05 C 684.939 1383.93 677.079 1376.61 669.397 1369.12 C 666.3 1364.94 656.118 1356.07 651.025 1349.83 C 650.337 1350.9 644.759 1359.38 643.055 1359.33 C 639.899 1359.24 635.057 1361.7 634.913 1365.35 C 634.879 1366.19 635.309 1366.65 635.868 1367.26 C 640.894 1368.85 637.179 1363.07 643.511 1363.94 C 647.062 1364.43 650.288 1358.09 651.937 1356.09 C 656.529 1357.39 653.882 1360.35 652.224 1362.51 C 648.956 1366.77 646.175 1368.78 641.021 1370.1 C 640.422 1370.26 637.242 1370.05 636.505 1370.05 C 634.553 1370.05 630.422 1371.48 629.448 1373.37 C 628.824 1374.67 626.668 1375.78 626.151 1376.67 C 626.2 1376.92 626.249 1377.17 626.299 1377.43 L 625.428 1377.82 C 624.592 1378.24 623.755 1378.66 622.919 1379.08 C 635.248 1382.77 640.194 1388.94 649.5 1395.49 C 652.236 1398.07 654.694 1400.42 657.308 1403.12 C 666.832 1416.63 666.67 1415.88 673.417 1431.32 L 673.836 1433.91 C 678.195 1463.57 675.75 1478.79 657.167 1502.8 C 653.87 1505.85 651.341 1508.42 648.269 1511.7 z M 1582.89 1472.39 C 1601.94 1490.44 1624.89 1511.43 1642.47 1530.63 C 1645.02 1533.31 1655.25 1544.27 1657.91 1545.39 C 1661.38 1541.66 1663.55 1542.23 1668.74 1540.36 C 1677.03 1529.67 1674.04 1531.88 1678.7 1519.9 C 1730.38 1450.87 1771.96 1371.67 1799.89 1290.06 C 1807.59 1267.54 1809.15 1242.03 1815.92 1218.87 C 1822.29 1197.08 1828.78 1175.15 1833.97 1153.05 C 1837.93 1136.09 1842.26 1124.23 1835.18 1106.92 L 1835.75 1105.24 C 1826.8 1104.56 1810.62 1105 1801.09 1105.01 L 1735.6 1105.09 L 1737.59 1106.88 C 1730.38 1113.12 1716.48 1100.75 1716.29 1118.13 C 1716.02 1142.22 1721 1161.23 1714.27 1185.02 C 1711.55 1194.63 1712.1 1210.83 1708.64 1221.07 C 1700.91 1254.66 1684.87 1286.95 1672.15 1318.83 C 1661.04 1346.69 1653.52 1375.73 1639.81 1402.41 C 1626.1 1427.57 1615.57 1444.25 1594.17 1463.19 C 1590.56 1466.44 1586.79 1469.51 1582.89 1472.39 z M 403.91 1532.28 L 408.979 1527.46 C 411.107 1525.82 419.493 1517.13 421.865 1514.76 C 418.851 1510.7 416.458 1511.14 412.315 1505.51 C 412.078 1503.23 411.699 1497.45 409.74 1496.5 C 399.734 1491.66 390.389 1491.77 380.421 1485.56 C 376.736 1483.26 373.367 1480.49 370.401 1477.32 C 363.122 1469.59 359.757 1453.63 352.817 1442.8 C 343.218 1427.81 330.021 1415.4 320.074 1401.96 C 315.641 1395.97 303.667 1372.16 299.639 1364.4 C 275.648 1318.54 262.256 1267.89 260.45 1216.16 C 259.554 1192.07 260.565 1167.76 260.544 1143.65 C 260.537 1135.95 259.651 1134.31 256.101 1127.34 C 253.652 1122.52 251.345 1109.37 257.514 1106.49 C 245.774 1105.65 234.137 1105.2 222.377 1105.82 C 222.572 1107.4 222.976 1109.73 222.945 1111.24 C 222.729 1121.62 231.054 1134.87 231.539 1144.49 C 233.583 1185.04 241.673 1224.41 249.208 1264.19 C 251.853 1278.16 252.482 1292.7 256.005 1306.48 C 265.453 1335.05 278.03 1368.06 291.913 1394.69 C 293.823 1398.35 306.878 1421.76 308.458 1423.63 C 310.622 1432.62 318.59 1444.93 323.091 1453.83 C 337.035 1481.37 354.113 1501.13 379.214 1518.97 C 379.387 1519.1 384.326 1529.73 385.224 1531.34 C 390.82 1534.29 397.285 1529.39 403.91 1532.28 z"/>
<path transform="translate(0,0)" fill="rgb(129,140,248)" d="M 945.037 231.581 C 945.551 197.781 942.196 172.258 967.445 145.525 C 982.174 130.065 1002.5 121.173 1023.85 120.848 C 1065.54 120.005 1100.37 153.091 1104.29 194.264 C 1105.01 201.778 1104.94 209.289 1104.97 216.833 C 1218.09 207.386 1409.54 283.923 1497.84 355.979 C 1512.24 367.732 1519.33 378.773 1530.31 388.592 C 1530.31 395.51 1529.82 396.903 1533.81 402.294 C 1562.5 375.745 1580.46 349.088 1622.45 351.005 C 1644.07 352.071 1664.37 361.748 1678.81 377.876 C 1693.11 393.589 1700.4 414.445 1699.01 435.646 C 1696.56 473.986 1669.85 488.663 1645.25 514.694 L 1646.35 515.082 C 1653.66 517.606 1660.54 517.327 1665.86 521.35 C 1676.75 529.582 1684.49 542.043 1692.47 552.838 C 1721.49 592.112 1744.26 633.563 1765.91 677.186 C 1784.72 715.098 1798.23 753.41 1810.11 793.973 C 1816.31 815.156 1823.97 835.663 1828.81 857.293 C 1832.36 873.104 1834.53 888.202 1836.28 904.317 C 1837.14 912.311 1840.6 925.532 1838.2 933.036 C 1836.47 938.457 1830.74 935.762 1828.48 944.756 C 1856.33 945.396 1877.66 949.001 1898.05 970.456 C 1912.96 985.899 1920.95 1006.74 1920.2 1028.19 C 1919.64 1049.63 1910.31 1069.9 1894.38 1084.26 C 1878.23 1098.99 1857.27 1104.86 1835.75 1105.24 C 1826.8 1104.56 1810.62 1105 1801.09 1105.01 L 1735.6 1105.09 L 1737.59 1106.88 C 1730.38 1113.12 1716.48 1100.75 1716.29 1118.13 C 1716.02 1142.22 1721 1161.23 1714.27 1185.02 C 1711.55 1194.63 1712.1 1210.83 1708.64 1221.07 C 1700.91 1254.66 1684.87 1286.95 1672.15 1318.83 C 1661.04 1346.69 1653.52 1375.73 1639.81 1402.41 C 1626.1 1427.57 1615.57 1444.25 1594.17 1463.19 C 1590.56 1466.44 1586.79 1469.51 1582.89 1472.39 C 1601.94 1490.44 1624.89 1511.43 1642.47 1530.63 C 1645.02 1533.31 1655.25 1544.27 1657.91 1545.39 C 1681.15 1569.58 1699.48 1582.37 1699.27 1619.56 C 1699.15 1640.57 1689.58 1660.25 1674.37 1674.82 C 1659.28 1689.29 1639.01 1697.1 1618.11 1696.47 C 1582.81 1695.62 1567.64 1676.08 1544.09 1653.16 C 1529.84 1639.29 1515.51 1624.77 1500.91 1611.29 L 1495.51 1606.1 L 1483.88 1594.52 C 1481.69 1592.24 1473.92 1584.09 1471.94 1582.82 C 1469.63 1580.13 1463.82 1573.82 1461.1 1571.68 C 1454.63 1564.43 1443.92 1554.23 1436.66 1547.29 L 1399.87 1511.29 C 1397.42 1508.73 1392.23 1502.93 1389.76 1500.81 L 1385.42 1495.49 C 1377.31 1482.62 1374.19 1472.35 1372.9 1457.46 L 1371.23 1449.75 C 1372.09 1445.6 1371.91 1444.5 1371.72 1440.18 C 1360.24 1454.63 1347.6 1450.96 1333.6 1459.9 C 1322.12 1467.22 1310.8 1476.29 1299.7 1484.29 C 1258.14 1514.28 1207.88 1532.96 1158.48 1545.46 C 1147.82 1548.16 1137.07 1552.18 1126.31 1554.48 C 1120.36 1552.96 1114.21 1551.63 1108.3 1550.23 C 1101.94 1547.64 1093.02 1547.14 1102.67 1540.7 L 1102.83 1540.79 C 1104.57 1540.63 1106.87 1536.32 1106.33 1534.96 C 1103.89 1528.73 1095.31 1528.75 1094.39 1522.22 C 1094.31 1521.56 1094.23 1520.89 1094.15 1520.23 C 1100.2 1519.66 1125.59 1519 1127.01 1512.91 C 1125.77 1511.76 1124.78 1511.55 1123.11 1510.8 L 1121.59 1511.86 L 1120.43 1510.47 L 1121.84 1509.43 L 1122.06 1511.03 C 1122.68 1510.92 1123.29 1510.81 1123.91 1510.69 C 1128.25 1507.56 1135.33 1506.79 1140.88 1506.56 C 1137.98 1507.78 1136.19 1508.66 1133.38 1510.12 L 1133.77 1510.92 C 1162.27 1509.44 1200.61 1493.3 1225.8 1479.65 C 1228.48 1478.2 1228.04 1478.65 1231.23 1478.26 C 1224.35 1477.61 1220.97 1479.58 1214.75 1479.32 L 1213.23 1479.75 C 1201.52 1483.14 1184.78 1490.97 1171.39 1495.19 C 1146.9 1502.9 1126.22 1507.08 1100.93 1511.45 C 1096.08 1512.19 1090.81 1512.74 1086.12 1513.5 C 1076.8 1514.82 1065.19 1515.17 1056.72 1516.66 C 1043.78 1518.15 1022.18 1517.93 1009.14 1517.42 C 939.786 1514.56 871.715 1497.82 808.952 1468.18 C 790.044 1459.35 773.858 1448.18 755.911 1438.6 C 741.659 1428.11 724.906 1415.89 710.397 1405.92 C 704.629 1400.92 698.82 1395.96 692.97 1391.05 C 684.939 1383.93 677.079 1376.61 669.397 1369.12 C 666.3 1364.94 656.118 1356.07 651.025 1349.83 C 650.337 1350.9 644.759 1359.38 643.055 1359.33 C 639.899 1359.24 635.057 1361.7 634.913 1365.35 C 634.879 1366.19 635.309 1366.65 635.868 1367.26 C 640.894 1368.85 637.179 1363.07 643.511 1363.94 C 647.062 1364.43 650.288 1358.09 651.937 1356.09 C 656.529 1357.39 653.882 1360.35 652.224 1362.51 C 648.956 1366.77 646.175 1368.78 641.021 1370.1 C 640.422 1370.26 637.242 1370.05 636.505 1370.05 C 634.553 1370.05 630.422 1371.48 629.448 1373.37 C 628.824 1374.67 626.668 1375.78 626.151 1376.67 C 626.2 1376.92 626.249 1377.17 626.299 1377.43 L 625.428 1377.82 C 624.592 1378.24 623.755 1378.66 622.919 1379.08 C 635.248 1382.77 640.194 1388.94 649.5 1395.49 C 652.236 1398.07 654.694 1400.42 657.308 1403.12 C 666.832 1416.63 666.67 1415.88 673.417 1431.32 L 673.836 1433.91 C 678.195 1463.57 675.75 1478.79 657.167 1502.8 C 653.87 1505.85 651.341 1508.42 648.269 1511.7 C 645.35 1513.68 591.872 1566.19 589.83 1569.36 C 586.036 1572.69 579.555 1578.93 576.12 1582.61 C 570.82 1587.77 547.643 1609.85 544.541 1614.12 C 530.766 1625.74 512.978 1645.39 499.459 1658.24 C 479.126 1677.58 466.653 1693.96 436.357 1696.27 C 414.967 1698.11 393.731 1691.32 377.379 1677.41 C 360.961 1663.29 351.257 1644.29 350.004 1622.74 C 347.346 1577 377.74 1561.89 403.91 1532.28 L 408.979 1527.46 C 411.107 1525.82 419.493 1517.13 421.865 1514.76 C 418.851 1510.7 416.458 1511.14 412.315 1505.51 C 412.078 1503.23 411.699 1497.45 409.74 1496.5 C 399.734 1491.66 390.389 1491.77 380.421 1485.56 C 376.736 1483.26 373.367 1480.49 370.401 1477.32 C 363.122 1469.59 359.757 1453.63 352.817 1442.8 C 343.218 1427.81 330.021 1415.4 320.074 1401.96 C 315.641 1395.97 303.667 1372.16 299.639 1364.4 C 275.648 1318.54 262.256 1267.89 260.45 1216.16 C 259.554 1192.07 260.565 1167.76 260.544 1143.65 C 260.537 1135.95 259.651 1134.31 256.101 1127.34 C 253.652 1122.52 251.345 1109.37 257.514 1106.49 C 245.774 1105.65 234.137 1105.2 222.377 1105.82 L 215.934 1105.24 C 192.25 1104.89 173.035 1099.69 154.893 1083.36 C 139.828 1070.03 130.666 1051.26 129.418 1031.18 C 127.704 998.331 145.42 968.44 174.537 953.572 C 187.397 947.006 198.829 945.448 212.983 944.703 C 220.054 944.956 226.103 945.141 233.168 944.901 C 277.545 945.058 323.226 944.154 367.369 944.858 C 367.099 942.58 367.329 939.607 367.621 937.26 C 380.353 834.985 422.207 732.803 481.3 648.585 C 485.266 642.932 502.205 619.452 506.195 616.14 C 485.552 594.909 463.68 574.556 442.739 553.59 C 436.355 547.198 429.712 540.603 423.009 534.588 C 417.698 528.784 413.761 524.888 407.967 519.554 C 405.833 517.16 394.089 505.044 391.717 504.051 C 370.452 481.761 350.587 466.153 349.637 433.168 C 348.876 412.09 356.726 391.61 371.38 376.441 C 386.433 360.607 407.232 351.509 429.076 351.203 C 468.233 350.611 483.401 372.323 509.409 397.212 C 514.361 390.603 516.034 381.906 521.56 376.33 C 532.864 364.924 549.123 353.618 562.194 344.042 C 649.149 281.535 749.793 240.732 855.728 225.039 C 874.402 222.294 892.616 219.422 911.535 219.139 C 916.803 219.06 926.76 218.273 930.634 222.828 C 933.703 226.436 934.058 229.415 938.051 232.867 C 941.927 233.774 940.597 233.564 945.037 231.581 z"/>
<path transform="translate(0,0)" fill="rgb(245,158,11)" d="M 651.025 1349.83 C 562.722 1245.17 516.311 1122.63 527.949 984.413 C 538.764 851.877 602.54 729.294 704.864 644.367 C 807.382 559.825 939.198 519.302 1071.5 531.653 C 1202.56 544.102 1323.44 607.658 1407.99 708.565 C 1491.18 808.757 1531.63 937.657 1520.58 1067.42 C 1508.3 1202.27 1443.53 1317.83 1339.99 1403.95 C 1314.37 1424.85 1286.72 1443.11 1257.45 1458.47 C 1243.74 1465.55 1227.65 1472.23 1214.75 1479.32 L 1213.23 1479.75 C 1201.52 1483.14 1184.78 1490.97 1171.39 1495.19 C 1146.9 1502.9 1126.22 1507.08 1100.93 1511.45 C 1096.08 1512.19 1090.81 1512.74 1086.12 1513.5 C 1076.8 1514.82 1065.19 1515.17 1056.72 1516.66 C 1043.78 1518.15 1022.18 1517.93 1009.14 1517.42 C 939.786 1514.56 871.715 1497.82 808.952 1468.18 C 790.044 1459.35 773.858 1448.18 755.911 1438.6 C 741.659 1428.11 724.906 1415.89 710.397 1405.92 C 704.629 1400.92 698.82 1395.96 692.97 1391.05 C 684.939 1383.93 677.079 1376.61 669.397 1369.12 C 666.3 1364.94 656.118 1356.07 651.025 1349.83 z"/>
<path transform="translate(0,0)" fill="url(#Gradient15)" d="M 509.409 397.212 C 514.361 390.603 516.034 381.906 521.56 376.33 C 532.864 364.924 549.123 353.618 562.194 344.042 C 649.149 281.535 749.793 240.732 855.728 225.039 C 874.402 222.294 892.616 219.422 911.535 219.139 C 916.803 219.06 926.76 218.273 930.634 222.828 C 933.703 226.436 934.058 229.415 938.051 232.867 C 941.927 233.774 940.597 233.564 945.037 231.581 C 946.4 266.121 945.515 305.817 945.543 340.738 L 945.833 367.244 C 945.885 383.847 945.519 402.859 946.39 419.256 L 945.369 421.206 L 944.535 419.315 C 935.178 415.743 919.208 424.137 909.421 426.714 C 892.502 431.169 875.765 436.656 859.772 443.805 C 832.426 457.427 803.068 471.142 776.596 486.244 C 762.022 494.558 748.51 508.106 733.9 516.8 C 721.189 525.492 707.606 533.543 695.528 542.878 L 695.416 543.426 L 698.337 542.787 C 698.746 547.219 679.584 562.492 675.079 568.173 C 673.859 568.588 673.457 568.888 672.253 568.889 C 663.372 544.137 634.177 520.675 615.034 501.252 C 603.582 490.33 587.229 475.553 576.758 464.043 C 569.304 457.568 540.191 429.155 534.151 422.158 C 530.907 420.065 512.354 400.714 509.409 397.212 z"/>
<path transform="translate(0,0)" fill="rgb(44,73,254)" d="M 615.034 501.252 C 620.603 493.067 645.697 476.837 654.59 470.673 C 726.376 420.921 811.191 389.653 896.765 373.921 C 910.689 371.361 931.974 366.834 945.833 367.244 C 945.885 383.847 945.519 402.859 946.39 419.256 L 945.369 421.206 L 944.535 419.315 C 935.178 415.743 919.208 424.137 909.421 426.714 C 892.502 431.169 875.765 436.656 859.772 443.805 C 832.426 457.427 803.068 471.142 776.596 486.244 C 762.022 494.558 748.51 508.106 733.9 516.8 C 721.189 525.492 707.606 533.543 695.528 542.878 L 695.416 543.426 L 698.337 542.787 C 698.746 547.219 679.584 562.492 675.079 568.173 C 673.859 568.588 673.457 568.888 672.253 568.889 C 663.372 544.137 634.177 520.675 615.034 501.252 z"/>
<path transform="translate(0,0)" fill="rgb(129,140,248)" d="M 534.151 422.158 L 535.807 422.723 C 539.58 423.885 547.242 432.49 550.584 435.596 C 553.534 431.746 554.542 428 559.122 427.123 C 557.688 437.773 546.1 433.012 561.862 446.939 C 568.113 452.462 573.667 456.606 576.758 464.043 C 569.304 457.568 540.191 429.155 534.151 422.158 z"/>
<path transform="translate(0,0)" fill="rgb(129,140,248)" d="M 559.122 427.123 C 560.854 420.424 581.634 398.652 588.086 396.257 C 586.194 398.681 559.849 426.782 559.122 427.123 z"/>
<path transform="translate(0,0)" fill="rgb(129,140,248)" d="M 890.071 277.96 C 892.4 275.588 932.493 273.298 934.686 274.182 C 931.756 275.63 891.297 278.79 890.071 277.96 z"/>
<path transform="translate(0,0)" fill="rgb(129,140,248)" d="M 841 286 C 846.09 282.942 853.645 282.428 859.498 282.847 C 855.4 284.543 845.379 286.519 841 286 z"/>
<path transform="translate(0,0)" fill="rgb(129,140,248)" d="M 807.506 292.176 C 813.697 289.555 818.673 288.368 825.302 288.808 C 820.034 291.156 813.282 292.448 807.506 292.176 z"/>
<path transform="translate(0,0)" fill="rgb(129,140,248)" d="M 873.735 280.199 C 880.213 277.269 883.189 277.248 890.071 277.96 C 885.512 279.937 878.666 280.502 873.735 280.199 z"/>
<path transform="translate(0,0)" fill="rgb(129,140,248)" d="M 827.738 288.224 C 832.836 285.884 835.576 285.205 841 286 C 837.102 288.334 832.157 288.465 827.738 288.224 z"/>
<path transform="translate(0,0)" fill="rgb(129,140,248)" d="M 791.878 296 C 795.606 293.859 796.86 293.867 801.144 293.654 C 796.472 296.19 796.735 296.569 791.878 296 z"/>
<path transform="translate(0,0)" fill="rgb(129,140,248)" d="M 711.837 321.833 C 715.155 319.189 715.747 319.334 719.888 318.289 C 716.505 321.393 716.444 321.579 711.837 321.833 z"/>
<path transform="translate(0,0)" fill="rgb(129,140,248)" d="M 765.878 303 C 768.07 301.623 769.402 300.865 771.965 300.759 L 773.824 300.654 C 770.001 302.954 770.252 303.146 765.878 303 z"/>
<path transform="translate(0,0)" fill="rgb(129,140,248)" d="M 781 298.833 C 783.145 297.569 784.645 296.849 787.144 296.745 L 789.138 296.631 L 787.664 297.437 C 784.922 299.016 784.162 299.087 781 298.833 z"/>
<path transform="translate(0,0)" fill="rgb(129,140,248)" d="M 863.122 282 C 864.851 280.905 865.527 280.44 867.559 280.783 L 869.122 281 C 866.357 282.597 866.293 282.447 863.122 282 z"/>
<path transform="translate(0,0)" fill="rgb(129,140,248)" d="M 869.122 281 C 871.291 279.658 871.312 279.431 873.735 280.199 C 871.999 282.033 871.627 281.372 869.122 281 z"/>
<path transform="translate(0,0)" fill="rgb(129,140,248)" d="M 667 343 C 668.723 341.301 668.494 341.343 670.818 341.233 C 670.047 343.349 669.255 342.774 667 343 z"/>
<path transform="translate(0,0)" fill="rgb(129,140,248)" d="M 652.917 349.325 C 653.558 348.528 653.894 348.323 654.909 348.286 L 655.822 348.243 C 655.126 350.147 654.837 349.58 652.917 349.325 z"/>
<path transform="translate(0,0)" fill="rgb(129,140,248)" d="M 825.302 288.808 C 826.284 287.695 826.267 287.783 827.738 288.224 C 826.767 289.229 826.7 289.093 825.302 288.808 z"/>
<path transform="translate(0,0)" fill="rgb(129,140,248)" d="M 859.498 282.847 C 860.861 281.409 861.198 281.748 863.122 282 C 861.321 283.046 861.49 283.101 859.498 282.847 z"/>
<path transform="translate(0,0)" fill="rgb(129,140,248)" d="M 729.891 314.274 C 730.867 313.173 731.307 313.311 732.759 313.235 C 732.129 315.208 731.767 314.559 729.891 314.274 z"/>
<path transform="translate(0,0)" fill="rgb(129,140,248)" d="M 677.004 338.366 C 677.915 337.038 678.348 337.314 679.855 337.33 C 679.111 339.12 678.782 338.579 677.004 338.366 z"/>
<path transform="translate(0,0)" fill="rgb(129,140,248)" d="M 803.878 293 C 805.462 292.08 805.758 291.674 807.506 292.176 C 806.377 293.496 805.555 293.011 803.878 293 z"/>
<path transform="translate(0,0)" fill="rgb(129,140,248)" d="M 936.258 274.162 C 938.118 273.19 938.978 272.949 941.094 273.179 L 943.055 273.329 C 939.626 274.472 939.801 274.531 936.258 274.162 z"/>
<path transform="translate(0,0)" fill="rgb(129,140,248)" d="M 614.51 372.993 C 615.171 372.042 615.144 372.095 616.21 371.625 C 616.071 373.275 616.607 373.067 614.51 372.993 z"/>
<path transform="translate(0,0)" fill="rgb(129,140,248)" d="M 643.872 354.402 C 644.438 353.184 644.586 353.335 645.872 353.361 C 645.38 354.459 645.117 354.272 643.872 354.402 z"/>
<path transform="translate(0,0)" fill="rgb(129,140,248)" d="M 752 307 C 753.385 306.223 753.35 305.994 754.696 306.075 C 753.963 306.913 753.074 306.84 752 307 z"/>
<path transform="translate(0,0)" fill="rgb(129,140,248)" d="M 595.055 389.285 C 595.376 387.797 595.699 387.711 597 387 C 596.467 388.328 596.416 388.715 595.055 389.285 z"/>
<path transform="translate(0,0)" fill="rgb(129,140,248)" d="M 773.824 300.654 C 774.613 299.948 774.462 299.95 775.424 299.974 C 774.949 300.698 774.745 300.614 773.824 300.654 z"/>
<path transform="translate(0,0)" fill="rgb(129,140,248)" d="M 801.144 293.654 C 802.512 292.929 802.35 292.96 803.878 293 C 802.616 293.749 802.748 293.611 801.144 293.654 z"/>
<path transform="translate(0,0)" fill="rgb(129,140,248)" d="M 789.138 296.631 C 790.513 295.93 790.354 295.961 791.878 296 C 790.614 296.751 790.748 296.61 789.138 296.631 z"/>
<path transform="translate(0,0)" fill="rgb(129,140,248)" d="M 735.837 311.833 C 737.316 311.21 737.349 311.008 738.68 311.114 C 738.009 311.795 737.871 311.696 736.835 311.763 L 735.837 311.833 z"/>
<path transform="translate(0,0)" fill="rgb(129,140,248)" d="M 749.27 307.4 C 750.62 306.966 750.556 306.968 752 307 C 750.695 307.733 750.845 307.591 749.27 307.4 z"/>
<path transform="translate(0,0)" fill="rgb(129,140,248)" d="M 763.117 303.352 C 764.476 302.952 764.423 302.964 765.878 303 C 764.58 303.741 764.715 303.573 763.117 303.352 z"/>
<path transform="translate(0,0)" fill="rgb(129,140,248)" d="M 628.423 363.157 C 629.06 362.649 628.997 362.613 629.751 362.508 C 629.644 363.011 629.727 362.858 629.558 363.062 C 629.028 363.27 629.393 363.163 628.423 363.157 z"/>
<path transform="translate(0,0)" fill="rgb(129,140,248)" d="M 665.076 344.271 C 665.942 343.263 665.77 343.338 667 343 C 666.247 343.998 666.362 343.849 665.076 344.271 z"/>
<path transform="translate(0,0)" fill="rgb(129,140,248)" d="M 597 387 C 597.836 386.274 598.082 385.837 599.113 385.981 C 598.685 386.762 597.817 386.791 597 387 z"/>
<path transform="translate(0,0)" fill="rgb(129,140,248)" d="M 704.67 325.5 C 705.022 324.438 704.69 324.789 705.514 324.277 C 705.487 325.068 705.381 325.079 704.67 325.5 z"/>
<path transform="translate(0,0)" fill="url(#Gradient14)" d="M 1533.81 402.294 C 1562.5 375.745 1580.46 349.088 1622.45 351.005 C 1644.07 352.071 1664.37 361.748 1678.81 377.876 C 1693.11 393.589 1700.4 414.445 1699.01 435.646 C 1696.56 473.986 1669.85 488.663 1645.25 514.694 C 1627.72 530.092 1610.13 550.202 1592.79 566.604 C 1572.02 585.789 1552.43 606.645 1532.15 626.367 C 1508.57 649.305 1496.68 666.989 1462.52 672.048 C 1407.12 673.344 1374.14 641.541 1372.97 586.391 C 1376.13 552.291 1398.32 537.604 1420.76 514.742 C 1441.72 493.377 1464.35 472.979 1484.74 451.123 C 1489.43 448.336 1529.24 407.825 1533.81 402.294 z"/>
<path transform="translate(0,0)" fill="url(#Gradient13)" d="M 391.717 504.051 C 370.452 481.761 350.587 466.153 349.637 433.168 C 348.876 412.09 356.726 391.61 371.38 376.441 C 386.433 360.607 407.232 351.509 429.076 351.203 C 468.233 350.611 483.401 372.323 509.409 397.212 C 512.354 400.714 530.907 420.065 534.151 422.158 C 540.191 429.155 569.304 457.568 576.758 464.043 C 587.229 475.553 603.582 490.33 615.034 501.252 C 634.177 520.675 663.372 544.137 672.253 568.889 L 672.965 570.928 C 674.553 577.974 675.304 582.004 676.077 589.164 C 674.195 613.637 671.306 624.296 656.467 644.089 C 651.54 648.792 646.472 653.344 641.268 657.739 C 620.826 669.627 600.243 676.479 576.477 670.257 L 573.645 669.757 C 570.734 668.687 567.931 667.538 565.042 666.444 C 543.686 656.351 524.248 633.178 506.195 616.14 C 485.552 594.909 463.68 574.556 442.739 553.59 C 436.355 547.198 429.712 540.603 423.009 534.588 C 417.698 528.784 413.761 524.888 407.967 519.554 C 405.833 517.16 394.089 505.044 391.717 504.051 z"/>
<path transform="translate(0,0)" fill="url(#Gradient12)" d="M 1372.9 1457.46 C 1373.03 1443.72 1375.06 1432.1 1381.2 1419.61 C 1390.62 1400.37 1407.41 1385.76 1427.77 1379.09 C 1450.79 1371.34 1469.35 1373.76 1490.53 1384.34 C 1507.67 1396.89 1522.74 1412.73 1537.87 1427.7 L 1546.37 1436.06 C 1558.36 1448.35 1570.54 1460.46 1582.89 1472.39 C 1601.94 1490.44 1624.89 1511.43 1642.47 1530.63 C 1645.02 1533.31 1655.25 1544.27 1657.91 1545.39 C 1681.15 1569.58 1699.48 1582.37 1699.27 1619.56 C 1699.15 1640.57 1689.58 1660.25 1674.37 1674.82 C 1659.28 1689.29 1639.01 1697.1 1618.11 1696.47 C 1582.81 1695.62 1567.64 1676.08 1544.09 1653.16 C 1529.84 1639.29 1515.51 1624.77 1500.91 1611.29 L 1495.51 1606.1 L 1483.88 1594.52 C 1481.69 1592.24 1473.92 1584.09 1471.94 1582.82 C 1469.63 1580.13 1463.82 1573.82 1461.1 1571.68 C 1454.63 1564.43 1443.92 1554.23 1436.66 1547.29 L 1399.87 1511.29 C 1397.42 1508.73 1392.23 1502.93 1389.76 1500.81 L 1385.42 1495.49 C 1377.31 1482.62 1374.19 1472.35 1372.9 1457.46 z"/>
<path transform="translate(0,0)" fill="url(#Gradient11)" d="M 587.303 1374.89 C 604.374 1374.71 606.986 1374.81 622.919 1379.08 C 635.248 1382.77 640.194 1388.94 649.5 1395.49 C 652.236 1398.07 654.694 1400.42 657.308 1403.12 C 666.832 1416.63 666.67 1415.88 673.417 1431.32 L 673.836 1433.91 C 678.195 1463.57 675.75 1478.79 657.167 1502.8 C 653.87 1505.85 651.341 1508.42 648.269 1511.7 C 645.35 1513.68 591.872 1566.19 589.83 1569.36 C 586.036 1572.69 579.555 1578.93 576.12 1582.61 C 570.82 1587.77 547.643 1609.85 544.541 1614.12 C 530.766 1625.74 512.978 1645.39 499.459 1658.24 C 479.126 1677.58 466.653 1693.96 436.357 1696.27 C 414.967 1698.11 393.731 1691.32 377.379 1677.41 C 360.961 1663.29 351.257 1644.29 350.004 1622.74 C 347.346 1577 377.74 1561.89 403.91 1532.28 L 408.979 1527.46 C 411.107 1525.82 419.493 1517.13 421.865 1514.76 C 427.59 1509.24 432.681 1504.33 438.006 1498.44 C 439.551 1497.36 453.545 1483.71 455.635 1481.69 C 472.62 1465.32 490.501 1448.63 506.709 1431.49 C 514.536 1423.22 529.574 1410.15 536.132 1401.95 C 555.535 1385.04 561.795 1378.97 587.303 1374.89 z"/>
<path transform="translate(0,0)" fill="url(#Gradient10)" d="M 945.037 231.581 C 945.551 197.781 942.196 172.258 967.445 145.525 C 982.174 130.065 1002.5 121.173 1023.85 120.848 C 1065.54 120.005 1100.37 153.091 1104.29 194.264 C 1105.01 201.778 1104.94 209.289 1104.97 216.833 C 1103.61 243.775 1104.35 275.23 1104.49 302.429 C 1104.42 320.858 1103.28 356.566 1104.76 373.465 L 1104.53 382.982 C 1104.51 405.879 1104.4 411.483 1101.32 433.64 C 1095.25 447.696 1090.99 455.471 1080.85 467.116 C 1059.15 484.689 1043.88 491.426 1014.86 489.042 C 1010.63 488.695 1001.78 486.526 999.459 486.369 C 978.306 476.931 977.793 475.118 961.499 459.86 C 951.147 443.883 949.398 437.966 946.39 419.256 C 945.519 402.859 945.885 383.847 945.833 367.244 L 945.543 340.738 C 945.515 305.817 946.4 266.121 945.037 231.581 z"/>
<path transform="translate(0,0)" fill="url(#Gradient9)" d="M 1828.48 944.756 C 1856.33 945.396 1877.66 949.001 1898.05 970.456 C 1912.96 985.899 1920.95 1006.74 1920.2 1028.19 C 1919.64 1049.63 1910.31 1069.9 1894.38 1084.26 C 1878.23 1098.99 1857.27 1104.86 1835.75 1105.24 C 1826.8 1104.56 1810.62 1105 1801.09 1105.01 L 1735.6 1105.09 L 1675.96 1105.07 C 1651.87 1105.1 1632.17 1106.73 1608.85 1100.38 C 1591.75 1092.65 1584.42 1087.26 1571.68 1073.46 C 1551.44 1043.49 1548.34 1011.05 1569.83 980.231 C 1573.79 974.549 1579.44 970.091 1583.34 964.855 L 1584.08 963.84 C 1611.34 944.081 1627.54 945.122 1660.32 945.129 L 1720.12 945.202 C 1729.37 945.213 1744.83 945.595 1753.69 944.742 L 1754.5 944.656 C 1775.65 945.656 1807.26 945.534 1828.48 944.756 z"/>
<path transform="translate(0,0)" fill="url(#Gradient8)" d="M 212.983 944.703 C 220.054 944.956 226.103 945.141 233.168 944.901 C 277.545 945.058 323.226 944.154 367.369 944.858 C 395.889 944.784 419.967 942.209 446.894 951.554 C 466.444 963.961 474.248 969.677 485.471 990.693 C 494.582 1014.08 493.991 1026.51 488.52 1050.9 C 477.628 1075.96 464.64 1090.5 438.754 1100.7 C 436.48 1101.6 434.183 1102.46 431.867 1103.25 C 424.257 1104.35 418.513 1105.22 410.858 1105.5 L 404.702 1105.76 C 397.056 1104.7 369.512 1105.13 361.236 1105.12 L 268.966 1105.14 C 253.348 1104.38 231.807 1105.09 215.934 1105.24 C 192.25 1104.89 173.035 1099.69 154.893 1083.36 C 139.828 1070.03 130.666 1051.26 129.418 1031.18 C 127.704 998.331 145.42 968.44 174.537 953.572 C 187.397 947.006 198.829 945.448 212.983 944.703 z"/>
<path transform="translate(0,0)" fill="rgb(44,73,254)" d="M 404.702 1105.76 L 410.858 1105.5 C 400.968 1176.55 403.539 1228.78 428.363 1297.04 C 431.411 1305.43 441.094 1328.76 446.002 1335.49 L 444.452 1337.03 C 402.038 1258.6 380.362 1193.95 368.677 1105.59 C 379.348 1106.01 394.253 1106.48 404.702 1105.76 z"/>
<path transform="translate(0,0)" fill="url(#Gradient7)" d="M 1537.87 1427.7 C 1562.36 1402.19 1585.98 1373.89 1602.89 1342.57 C 1606.11 1336.61 1608.82 1330.33 1613.2 1325.11 L 1613.9 1325.68 C 1599.08 1359.66 1567.33 1405.11 1546.37 1436.06 L 1537.87 1427.7 z"/>
<path transform="translate(0,0)" fill="rgb(56,82,254)" d="M 565.042 666.444 C 567.931 667.538 570.734 668.687 573.645 669.757 C 571.436 672.521 569.238 674.075 567.511 676.505 C 566.956 677.285 561.591 683.279 561.235 681.985 C 560.596 679.656 562.557 675.966 562.761 673.73 C 563.028 670.805 564.355 669.09 565.042 666.444 z"/>
<path transform="translate(0,0)" fill="url(#Gradient6)" d="M 372.919 527.134 L 374.452 527.109 C 377.748 527.033 384.75 527.562 387.008 526.956 C 392.166 525.478 396.23 521.695 402.003 523.014 C 402.844 522.895 405.131 524.097 405.464 522.611 C 405.715 521.486 403.111 519.541 403.565 518.865 C 403.399 518.896 407.126 519.537 407.967 519.554 C 413.761 524.888 417.698 528.784 423.009 534.588 C 429.712 540.603 436.355 547.198 442.739 553.59 C 463.68 574.556 485.552 594.909 506.195 616.14 C 502.205 619.452 485.266 642.932 481.3 648.585 C 422.207 732.803 380.353 834.985 367.621 937.26 C 367.329 939.607 367.099 942.58 367.369 944.858 C 323.226 944.154 277.545 945.058 233.168 944.901 C 226.103 945.141 220.054 944.956 212.983 944.703 C 212.348 941.938 211.639 939.19 210.856 936.464 C 205.243 916.57 217.41 885.778 221.069 865.408 C 224.915 843.999 229.752 821.025 235.324 800.001 C 256.937 718.466 292.126 641.153 339.414 571.304 C 345.493 562.166 352.055 552.853 358.859 544.247 C 363.642 538.197 368.528 533.655 372.919 527.134 z"/>
<path transform="translate(0,0)" fill="rgb(129,140,248)" fill-opacity="0.152941" d="M 678.282 1456.51 C 679.892 1455.23 680.359 1454.99 681.542 1453.32 C 700.936 1482.09 764.573 1500.2 794.607 1516.52 C 798.105 1518.42 822.658 1530.68 824.63 1530.76 C 826.689 1532.43 827.445 1532.97 830.04 1533.9 C 849.509 1540.82 878.715 1556.26 899.157 1556.22 C 899.94 1556.81 900.041 1556.72 901.054 1556.86 C 909.22 1559.42 919.145 1561.55 927.96 1564.03 C 930.376 1565.46 937.376 1568.22 941.472 1568.65 C 949.469 1569.49 956.913 1571.49 962.363 1577.96 C 964.994 1581.09 956.955 1589.68 955.988 1592 C 951.7 1597.16 952.058 1600.09 948.572 1604.97 C 948.546 1605.59 948.52 1606.2 948.493 1606.82 C 945.012 1606.61 949.202 1597.25 950.547 1595.78 C 952.093 1594.08 954.947 1587.4 951.009 1586.51 C 949.768 1586.23 950.193 1583.96 949.286 1583 C 948.563 1582.8 948.62 1582.87 947.895 1583.21 C 947.189 1584.5 952.444 1591.48 945.365 1596.63 C 942.229 1598.91 946.184 1607.45 948.747 1611.13 C 948.421 1612.7 946.86 1620.79 946.489 1621.79 L 945.508 1620.16 L 943.452 1621.17 C 941.39 1628.39 934.443 1630.1 933.479 1633.48 C 930.359 1644.4 925.184 1685.28 927.276 1694.35 L 928.447 1694.66 C 932.376 1688.24 934.711 1677.55 934.241 1670.09 C 933.262 1654.57 938.456 1642.09 942.449 1627.8 L 943.837 1628 C 944.181 1662.3 942.688 1696.79 943 1730.33 C 934.471 1729.4 901.795 1729.79 893.362 1730.59 C 896.217 1723.65 901.754 1711.85 907.704 1706.96 C 910.392 1704.75 912.183 1703.07 912.446 1699.5 C 908.425 1703.57 902.94 1707.29 899.297 1711.32 C 893.967 1717.22 886.138 1744.28 875.993 1741.43 C 878.334 1739.33 877.827 1740.32 878.899 1737.65 C 871.213 1737.44 872.859 1736.3 868.899 1735.41 C 858.802 1733.15 854.328 1723.99 848.205 1721.8 C 838.983 1718.49 828.315 1715.24 818.923 1712.05 C 798.219 1705.02 777.685 1697.5 757.337 1689.5 C 733.963 1680.05 712.183 1668.05 689.217 1658.09 C 686.103 1656.74 665.496 1660.58 660.339 1660.76 C 639.624 1661.5 613.783 1663.74 594.305 1655.36 C 586.735 1651.7 585.232 1641.34 583.239 1633.94 C 580.345 1631.7 579.428 1631.63 578.066 1628.57 L 579.301 1627.86 C 587.847 1632.04 583.655 1635.89 587.586 1642.72 C 589.417 1645.9 593.503 1645.92 596.863 1647.66 C 595.24 1649.1 595.608 1648.25 595.413 1650.04 C 602.312 1654.89 607.86 1649.93 615.023 1652.11 L 616.022 1651.16 C 612.97 1646.9 604.457 1643.48 602.385 1640.79 C 596.166 1632.73 589.922 1621.74 584.423 1613.04 C 583.573 1610.11 584.381 1610.97 586.228 1610.52 C 588.834 1609.88 584.049 1604.02 585.708 1602.75 C 587.769 1601.18 589.764 1597.35 590.327 1594.9 C 590.895 1594.69 597.974 1584.51 598.732 1583.15 C 601.351 1588.35 608.036 1595.29 614.044 1596.32 C 621.143 1597.52 626.017 1602.74 632.609 1606.23 C 655.274 1597.14 658.76 1580.24 656.489 1557.5 C 655.715 1549.75 656.153 1545.59 653.318 1538.18 C 653.973 1537.23 654.581 1536.04 655.642 1535.53 C 657.668 1534.24 660.894 1536.61 662.319 1536.49 C 665.27 1536.25 665.961 1535.02 665.591 1532.78 C 665.418 1531.74 668.99 1532.5 666.794 1529.6 C 664.897 1527.1 664.004 1523.71 663.58 1521.1 C 658.941 1515.59 651.731 1515.81 648.269 1511.7 C 651.341 1508.42 653.87 1505.85 657.167 1502.8 C 659.691 1503.56 662.266 1504.68 664.441 1502.5 L 664.229 1501.45 L 664.437 1501.41 C 663.386 1501.36 662.515 1502.01 661.622 1501.88 C 660.842 1501.26 666.985 1492.88 666.654 1493.12 C 670.589 1490.24 675.358 1470 676.682 1468.55 C 677.396 1469.38 678.312 1470.79 679.075 1471.33 L 679.184 1471.3 C 680.51 1472.2 681.281 1472.84 681.651 1474.44 C 681.751 1474.44 681.851 1474.43 681.95 1474.43 C 683.017 1471.94 684.661 1468.41 682.077 1466.17 C 677.582 1462.26 678.861 1461.61 678.282 1456.51 z"/>
<path transform="translate(0,0)" fill="url(#Gradient5)" d="M 1007.21 1557.42 C 1022.15 1555.56 1026.99 1555.5 1041.88 1557.44 C 1046.11 1559.24 1052.03 1560.65 1056.89 1562.57 C 1059.08 1564.38 1062.68 1565.78 1065.37 1567.36 C 1070.34 1570.27 1073.55 1573.09 1077.85 1576.71 C 1083.51 1583 1087.19 1586.72 1092.38 1593.67 C 1097.05 1602.44 1099.64 1608.18 1102.51 1617.82 C 1106.79 1642.33 1102.37 1662.01 1104.7 1683.41 C 1104.71 1688.16 1104.81 1692.9 1104.99 1697.65 C 1103.77 1732.8 1104.76 1769.76 1104.64 1804.99 C 1104.44 1842.48 1110 1876.01 1081.81 1904.83 C 1067.15 1919.76 1047.19 1928.28 1026.27 1928.53 C 1004.81 1928.8 984.122 1920.55 968.737 1905.59 C 942.557 1879.69 945.726 1847.92 945.807 1814.16 C 945.887 1794.69 945.853 1775.21 945.703 1755.74 C 947.39 1712.43 943.912 1665.53 946.489 1621.79 C 946.86 1620.79 948.421 1612.7 948.747 1611.13 C 950.132 1607.23 951.726 1603.2 953.485 1599.85 C 964.249 1579.34 983.422 1564.71 1005.5 1558.26 C 1006.07 1557.98 1006.64 1557.7 1007.21 1557.42 z"/>
<path transform="translate(0,0)" fill="url(#Gradient4)" d="M 1735.6 1105.09 L 1801.09 1105.01 C 1810.62 1105 1826.8 1104.56 1835.75 1105.24 L 1835.18 1106.92 C 1842.26 1124.23 1837.93 1136.09 1833.97 1153.05 C 1828.78 1175.15 1822.29 1197.08 1815.92 1218.87 C 1809.15 1242.03 1807.59 1267.54 1799.89 1290.06 C 1771.96 1371.67 1730.38 1450.87 1678.7 1519.9 C 1673.49 1522.51 1675.81 1520.09 1673.73 1523.44 C 1672.77 1523.57 1668.35 1522.1 1667.84 1524.43 C 1668.05 1524.76 1668.26 1525.08 1668.47 1525.41 L 1668.53 1525.3 L 1668.46 1525.4 C 1664.98 1526.97 1658.68 1534.95 1655.24 1532.32 C 1655.57 1521.95 1647.53 1525.31 1642.47 1530.63 C 1624.89 1511.43 1601.94 1490.44 1582.89 1472.39 C 1586.79 1469.51 1590.56 1466.44 1594.17 1463.19 C 1615.57 1444.25 1626.1 1427.57 1639.81 1402.41 C 1653.52 1375.73 1661.04 1346.69 1672.15 1318.83 C 1684.87 1286.95 1700.91 1254.66 1708.64 1221.07 C 1712.1 1210.83 1711.55 1194.63 1714.27 1185.02 C 1721 1161.23 1716.02 1142.22 1716.29 1118.13 C 1716.48 1100.75 1730.38 1113.12 1737.59 1106.88 L 1735.6 1105.09 z"/>
<path transform="translate(0,0)" fill="url(#Gradient3)" d="M 1349.88 1605.48 C 1349.69 1604.92 1350.72 1608.12 1350.41 1607.57 C 1353.52 1613.13 1358.16 1611.38 1362.14 1608.08 C 1364.58 1606.05 1365.72 1612.63 1368.2 1612.87 C 1368.24 1612.88 1371 1615.68 1371.7 1615.77 C 1371.86 1615.8 1372.99 1616.99 1373.12 1617.11 C 1375.58 1621.82 1376.6 1624.21 1380.82 1626.95 C 1377.66 1627.78 1376.82 1627.98 1373.42 1627.79 L 1372.11 1628.89 L 1372.8 1629.59 L 1373.85 1629.54 L 1372.27 1628.51 C 1377.3 1630.36 1377.38 1628.41 1382 1632.02 L 1386.4 1635.41 L 1382.63 1634.4 L 1382.42 1635.25 L 1381.68 1635.88 C 1379.39 1634.71 1379.68 1634.79 1377.64 1633.15 C 1377.14 1632.6 1376.64 1632.05 1376.15 1631.5 C 1371.68 1631.01 1367.78 1630.12 1363.57 1631.39 C 1352.38 1644.79 1401.49 1660.69 1408.1 1663.33 C 1424.57 1667.06 1459.73 1678.55 1473.3 1667.41 C 1481.5 1660.68 1482.49 1656.31 1494.1 1653.05 L 1495.21 1652.76 C 1488.9 1668.16 1398.01 1727.04 1381.21 1734.1 C 1355.8 1744.78 1330.3 1756.16 1304.48 1765.76 C 1254.98 1784.16 1191.1 1801.84 1138.53 1806.42 C 1131.39 1807.04 1113.19 1808.86 1106.75 1806.25 C 1105.88 1805.9 1105.38 1805.51 1104.64 1804.99 C 1104.76 1769.76 1103.77 1732.8 1104.99 1697.65 C 1104.81 1692.9 1104.71 1688.16 1104.7 1683.41 C 1201.8 1669.84 1262.25 1650.83 1349.88 1605.48 z"/>
<path transform="translate(0,0)" fill="url(#Gradient2)" d="M 576.12 1582.61 L 577.589 1582.94 C 582.403 1584.01 579.669 1582.74 580.279 1585.53 C 581.791 1592.47 578.341 1595.15 577.801 1601.5 C 577.545 1604.51 576.064 1617.34 581.866 1615.92 C 582.159 1614.8 581.543 1614.7 581.232 1613.7 C 582.786 1612.93 582.524 1613.48 584.423 1613.04 C 589.922 1621.74 596.166 1632.73 602.385 1640.79 C 604.457 1643.48 612.97 1646.9 616.022 1651.16 L 615.023 1652.11 C 607.86 1649.93 602.312 1654.89 595.413 1650.04 C 595.608 1648.25 595.24 1649.1 596.863 1647.66 C 593.503 1645.92 589.417 1645.9 587.586 1642.72 C 583.655 1635.89 587.847 1632.04 579.301 1627.86 L 578.066 1628.57 C 579.428 1631.63 580.345 1631.7 583.239 1633.94 C 585.232 1641.34 586.735 1651.7 594.305 1655.36 C 613.783 1663.74 639.624 1661.5 660.339 1660.76 C 665.496 1660.58 686.103 1656.74 689.217 1658.09 C 712.183 1668.05 733.963 1680.05 757.337 1689.5 C 777.685 1697.5 798.219 1705.02 818.923 1712.05 C 828.315 1715.24 838.983 1718.49 848.205 1721.8 C 854.328 1723.99 858.802 1733.15 868.899 1735.41 C 872.859 1736.3 871.213 1737.44 878.899 1737.65 C 877.827 1740.32 878.334 1739.33 875.993 1741.43 C 886.138 1744.28 893.967 1717.22 899.297 1711.32 C 902.94 1707.29 908.425 1703.57 912.446 1699.5 C 912.183 1703.07 910.392 1704.75 907.704 1706.96 C 901.754 1711.85 896.217 1723.65 893.362 1730.59 C 901.795 1729.79 934.471 1729.4 943 1730.33 L 943.01 1781.43 C 943.007 1788.64 943.405 1802.8 942.438 1809.48 C 929.282 1808.17 913.349 1807.1 900.541 1805.28 C 837.391 1796.29 767.875 1775.64 709.02 1752.1 C 676.106 1738.94 543.681 1663.92 531.733 1633.92 C 531.801 1622.99 542.492 1622.33 544.541 1614.12 C 547.643 1609.85 570.82 1587.77 576.12 1582.61 z"/>
<path transform="translate(0,0)" fill="rgb(182,159,160)" fill-opacity="0.054902" d="M 649.5 1395.49 C 650.462 1393.49 652.095 1390.29 651.96 1391.04 C 651.598 1390.3 650.385 1390.88 650.362 1389.86 C 651.484 1387.76 662.048 1385.56 663.76 1381.32 C 663.666 1381.55 666.38 1378.93 666.698 1378.63 L 666.584 1378.66 C 666.73 1379.31 666.995 1380.48 667.167 1381.16 C 668.452 1384.02 668.539 1384.37 671.979 1385.02 C 676.897 1385.95 676.467 1393.53 682.624 1393.86 C 683.894 1394.33 686.423 1396.48 687.349 1397.16 C 689.813 1398.98 690.596 1401.57 694.348 1401.57 C 701.969 1401.56 692.437 1395.34 692.491 1395.4 C 691.238 1394.12 692.465 1392.42 692.97 1391.05 C 698.82 1395.96 704.629 1400.92 710.397 1405.92 C 710.595 1414.17 712.243 1411.48 718.359 1416.84 C 721.992 1420.01 727.368 1423.36 728.761 1428.06 C 730.223 1432.55 738.673 1436.49 742.593 1438.78 C 747.05 1438.74 751.437 1438.64 755.911 1438.6 C 773.858 1448.18 790.044 1459.35 808.952 1468.18 C 871.715 1497.82 939.786 1514.56 1009.14 1517.42 C 1022.18 1517.93 1043.78 1518.15 1056.72 1516.66 C 1058.48 1516.99 1059.53 1516.72 1060.65 1517.84 L 1061.49 1517.58 L 1061.24 1517.42 L 1061.53 1517.59 L 1061.52 1517.68 C 1060.56 1518.06 1059.63 1518.28 1059.02 1519.13 C 1058.99 1520.36 1061.82 1524.84 1060.42 1526.41 C 1052.44 1535.34 1036.75 1539.77 1024.93 1538.44 C 1024.26 1538.36 1023.22 1538.6 1022.71 1538.89 C 1022.61 1539.62 1022.97 1539.66 1023.65 1539.86 C 1030.93 1542.54 1044.12 1542.22 1041.84 1552.99 C 1041.29 1555.59 1042.72 1555.33 1041.88 1557.44 C 1026.99 1555.5 1022.15 1555.56 1007.21 1557.42 C 1004.72 1555.49 997.503 1559.6 994.662 1560.26 C 985.519 1562.4 976.339 1572.25 969.495 1575.76 C 969.118 1575.53 965.62 1568.77 960.819 1568.8 C 949.746 1568.86 938.977 1564.49 927.96 1564.03 C 919.145 1561.55 909.22 1559.42 901.054 1556.86 C 900.255 1556.21 900.142 1556.1 899.157 1556.22 C 891.465 1551.33 835.445 1532.71 824.63 1530.76 C 822.658 1530.68 798.105 1518.42 794.607 1516.52 C 764.573 1500.2 700.936 1482.09 681.542 1453.32 C 680.359 1454.99 679.892 1455.23 678.282 1456.51 C 678.068 1453.41 677.892 1443.1 676.626 1440.74 C 674.63 1437.01 678.574 1432.76 676.413 1432.32 C 674.89 1433.03 675.946 1433.4 673.836 1433.91 L 673.417 1431.32 C 673.49 1429.94 674.106 1426.43 673.197 1425.29 C 667.56 1418.23 677.31 1417.84 668.858 1409.14 C 663.384 1403.5 666.252 1405.27 662.411 1406.59 C 662.428 1406.6 658.11 1403.58 657.308 1403.12 C 654.694 1400.42 652.236 1398.07 649.5 1395.49 z"/>
<path transform="translate(0,0)" fill="rgb(44,73,254)" fill-opacity="0.988235" d="M 1372.67 1522.22 C 1379.77 1521.64 1393.56 1514.6 1399.87 1511.29 L 1436.66 1547.29 C 1430.76 1550.79 1424.44 1555.95 1418.91 1560.24 C 1407.91 1568.66 1397.07 1575.44 1386.03 1583.44 C 1382.85 1584.9 1375.69 1589.76 1372.2 1591.9 C 1369.18 1593.72 1364.98 1596.2 1362.23 1598.28 C 1359.39 1599.71 1352.11 1603.5 1349.88 1605.48 C 1262.25 1650.83 1201.8 1669.84 1104.7 1683.41 C 1102.37 1662.01 1106.79 1642.33 1102.51 1617.82 C 1109.04 1621.07 1111.23 1630.56 1109.96 1637.27 C 1108.55 1634.25 1107.63 1630.18 1106.75 1626.86 L 1106.12 1627.95 C 1106.04 1632.78 1105.16 1645.35 1107.66 1648.9 C 1118.28 1649.96 1133.35 1644.77 1143.58 1641.58 C 1191.63 1627.08 1237.28 1605.58 1279.06 1577.76 C 1283.81 1575.98 1313.57 1555.75 1320.15 1551.25 C 1336.75 1539.9 1353.07 1530.45 1369.95 1519.8 L 1372.67 1522.22 z"/>
<path transform="translate(0,0)" fill="url(#Gradient1)" d="M 1371.23 1449.75 L 1372.9 1457.46 C 1374.19 1472.35 1377.31 1482.62 1385.42 1495.49 C 1383.84 1500.05 1379.04 1503.99 1375.44 1507.59 L 1374.47 1504.74 C 1372.11 1505.74 1352.28 1523.02 1348.34 1526.23 L 1348.16 1529.33 C 1333.29 1541.54 1286.8 1568.1 1279.06 1577.76 C 1237.28 1605.58 1191.63 1627.08 1143.58 1641.58 C 1133.35 1644.77 1118.28 1649.96 1107.66 1648.9 C 1105.16 1645.35 1106.04 1632.78 1106.12 1627.95 L 1106.75 1626.86 C 1107.63 1630.18 1108.55 1634.25 1109.96 1637.27 C 1111.23 1630.56 1109.04 1621.07 1102.51 1617.82 C 1099.64 1608.18 1097.05 1602.44 1092.38 1593.67 C 1094.28 1590.5 1095.27 1589.13 1096.4 1585.62 C 1097.79 1586.08 1096.59 1590.96 1096.31 1591.73 C 1095.29 1594.5 1102.02 1593.61 1102.44 1593.12 C 1106.12 1588.88 1108.41 1586.53 1113.62 1584.15 C 1117.08 1582.05 1119.9 1579.89 1124.52 1579.6 C 1128.49 1579.35 1130.37 1578.38 1133.54 1575.84 L 1135.07 1574.68 C 1135.2 1574.64 1135.32 1574.6 1135.45 1574.56 C 1146.27 1574.34 1157.21 1569.37 1168.33 1567.88 C 1179.8 1566.33 1191.49 1566.16 1202.75 1563.99 C 1249.22 1555.04 1288.89 1537.48 1329.37 1513.49 C 1347.64 1502.66 1358.82 1497.61 1375.81 1482.84 C 1375.91 1474.44 1370.35 1467.57 1371.15 1451.17 L 1371.23 1449.75 z"/>
<path transform="translate(0,0)" fill="rgb(201,205,249)" fill-opacity="0.607843" d="M 222.377 1105.82 C 234.137 1105.2 245.774 1105.65 257.514 1106.49 C 251.345 1109.37 253.652 1122.52 256.101 1127.34 C 259.651 1134.31 260.537 1135.95 260.544 1143.65 C 260.565 1167.76 259.554 1192.07 260.45 1216.16 C 262.256 1267.89 275.648 1318.54 299.639 1364.4 C 303.667 1372.16 315.641 1395.97 320.074 1401.96 C 330.021 1415.4 343.218 1427.81 352.817 1442.8 C 359.757 1453.63 363.122 1469.59 370.401 1477.32 C 373.367 1480.49 376.736 1483.26 380.421 1485.56 C 390.389 1491.77 399.734 1491.66 409.74 1496.5 C 411.699 1497.45 412.078 1503.23 412.315 1505.51 C 416.458 1511.14 418.851 1510.7 421.865 1514.76 C 419.493 1517.13 411.107 1525.82 408.979 1527.46 C 408.531 1522.83 401.115 1522.87 397.678 1519.83 C 395.835 1518.21 394.716 1511.14 392.281 1509.95 C 379.387 1503.61 370.767 1504.75 358.498 1494.56 C 340.457 1479.58 332.962 1457.37 319.294 1438.7 C 315.283 1433.22 313.387 1428.61 308.458 1423.63 C 306.878 1421.76 293.823 1398.35 291.913 1394.69 C 278.03 1368.06 265.453 1335.05 256.005 1306.48 C 252.482 1292.7 251.853 1278.16 249.208 1264.19 C 241.673 1224.41 233.583 1185.04 231.539 1144.49 C 231.054 1134.87 222.729 1121.62 222.945 1111.24 C 222.976 1109.73 222.572 1107.4 222.377 1105.82 z M 342.989 1441.86 C 347.838 1435.32 343.506 1431.26 337.029 1428.29 C 336.542 1434.83 338.307 1437.23 342.57 1441.94 C 342.709 1441.91 342.849 1441.88 342.989 1441.86 z M 338.875 1428.38 C 335.442 1424.92 334.946 1423.9 330.784 1421.57 L 331.166 1423.48 C 332.079 1428.36 333.045 1428.54 337.766 1428.4 L 338.875 1428.38 z"/>
<path transform="translate(0,0)" fill="rgb(226,227,249)" fill-opacity="0.627451" d="M 337.029 1428.29 C 343.506 1431.26 347.838 1435.32 342.989 1441.86 C 342.849 1441.88 342.709 1441.91 342.57 1441.94 C 338.307 1437.23 336.542 1434.83 337.029 1428.29 z"/>
<path transform="translate(0,0)" fill="rgb(226,227,249)" fill-opacity="0.623529" d="M 330.784 1421.57 C 334.946 1423.9 335.442 1424.92 338.875 1428.38 L 337.766 1428.4 C 333.045 1428.54 332.079 1428.36 331.166 1423.48 L 330.784 1421.57 z"/>
<path transform="translate(0,0)" fill="rgb(132,139,224)" fill-opacity="0.866667" d="M 1371.72 1440.18 C 1371.91 1444.5 1372.09 1445.6 1371.23 1449.75 L 1371.15 1451.17 C 1370.35 1467.57 1375.91 1474.44 1375.81 1482.84 C 1358.82 1497.61 1347.64 1502.66 1329.37 1513.49 C 1288.89 1537.48 1249.22 1555.04 1202.75 1563.99 C 1191.49 1566.16 1179.8 1566.33 1168.33 1567.88 C 1157.21 1569.37 1146.27 1574.34 1135.45 1574.56 C 1135.32 1574.6 1135.2 1574.64 1135.07 1574.68 C 1131.88 1574.05 1122.63 1571.14 1120.54 1572.22 L 1120.61 1572.25 C 1118.02 1566.98 1122.82 1562.42 1125.02 1557.44 L 1126.31 1554.48 C 1137.07 1552.18 1147.82 1548.16 1158.48 1545.46 C 1207.88 1532.96 1258.14 1514.28 1299.7 1484.29 C 1310.8 1476.29 1322.12 1467.22 1333.6 1459.9 C 1347.6 1450.96 1360.24 1454.63 1371.72 1440.18 z"/>
<path transform="translate(0,0)" fill="rgb(132,139,224)" fill-opacity="0.670588" d="M 1418.91 1560.24 L 1421.98 1561.89 C 1424.76 1563.36 1424.41 1563.1 1426.03 1561.21 C 1427.93 1558.98 1434.81 1562.38 1437.77 1558.86 C 1439.61 1556.67 1442.11 1557.55 1443.93 1559.22 C 1446.61 1561.68 1451.59 1563.81 1453.67 1567.4 C 1454.82 1569.06 1459.28 1570.85 1461.1 1571.68 C 1463.82 1573.82 1469.63 1580.13 1471.94 1582.82 C 1471.07 1582.55 1465.57 1580.46 1465.41 1580.54 C 1465.54 1580.27 1472.82 1605.59 1476.37 1604.56 C 1477.87 1608.44 1477.41 1610.06 1482.16 1609.16 C 1482.76 1615.48 1483.44 1611.77 1483.17 1618.9 L 1483.3 1618.99 C 1483.61 1620.27 1481.5 1623.69 1480.76 1624.66 C 1480.16 1624.54 1480.2 1622.69 1479.53 1621.62 C 1479.27 1626.08 1478.21 1623.29 1476.43 1624.91 C 1476.26 1625.06 1475.53 1627.56 1474.68 1628.48 C 1473.68 1628.77 1473.34 1626.66 1473.16 1626.17 C 1468.1 1625.24 1465.29 1626.15 1460.02 1626.68 C 1456.44 1627.62 1450.95 1628.21 1447.5 1628.53 C 1429.84 1630.18 1425.6 1628.44 1415.44 1614.16 C 1412.68 1610.28 1412.43 1610.88 1408.62 1607.85 C 1402.05 1602.62 1404.51 1599.99 1395.97 1596.51 C 1396.85 1596.07 1400.26 1594.82 1400.61 1593.62 C 1397.94 1592.02 1396.9 1592.1 1395.71 1588.59 C 1393.94 1583.4 1390.8 1585.97 1386.03 1583.44 C 1397.07 1575.44 1407.91 1568.66 1418.91 1560.24 z"/>
<path transform="translate(0,0)" fill="rgb(129,140,248)" fill-opacity="0.533333" d="M 641.564 1531.27 L 645.486 1530.03 C 653.351 1527.58 650.384 1532.19 653.318 1538.18 C 656.153 1545.59 655.715 1549.75 656.489 1557.5 C 658.76 1580.24 655.274 1597.14 632.609 1606.23 C 626.017 1602.74 621.143 1597.52 614.044 1596.32 C 608.036 1595.29 601.351 1588.35 598.732 1583.15 L 598.898 1582.12 C 600.742 1570.03 617.741 1550.9 626.653 1542.39 L 627.452 1541.63 C 632.785 1536.69 637.122 1535.04 641.564 1531.27 z"/>
<path transform="translate(0,0)" fill="rgb(132,139,224)" fill-opacity="0.478431" d="M 1383.18 1591.71 C 1384.37 1590.72 1386.84 1588.53 1388.59 1588.6 C 1389.29 1588.63 1389.95 1588.96 1390.39 1589.52 C 1392.11 1591.97 1394.2 1594.09 1395.97 1596.51 C 1404.51 1599.99 1402.05 1602.62 1408.62 1607.85 C 1412.43 1610.88 1412.68 1610.28 1415.44 1614.16 C 1425.6 1628.44 1429.84 1630.18 1447.5 1628.53 C 1450.95 1628.21 1456.44 1627.62 1460.02 1626.68 C 1465.29 1626.15 1468.1 1625.24 1473.16 1626.17 C 1473.92 1633.11 1470.55 1631.15 1466.53 1631.76 C 1465.56 1634.68 1467.71 1633.8 1463.48 1634.56 C 1463.36 1635.96 1469.54 1638.34 1460.68 1640.59 L 1460.67 1640.75 L 1460.64 1640.6 C 1462.24 1641.41 1463.22 1640.68 1464.91 1641.3 L 1465.12 1641.6 C 1464.15 1642.48 1462.71 1642.81 1461.98 1643.92 C 1462.11 1643.92 1462.25 1643.92 1462.38 1643.92 C 1462.35 1644.79 1461.25 1646.36 1461.8 1647.06 C 1463.6 1649.37 1467.63 1639.86 1466.42 1638.54 C 1466.28 1638.38 1466.53 1637.51 1466.63 1637.36 C 1467.55 1636.88 1467.23 1636.93 1468.26 1637.16 C 1469.15 1638.97 1466.75 1643.21 1465.98 1644.94 C 1465.67 1647.58 1467.93 1649.72 1469.27 1651.91 C 1469.07 1651.98 1467.71 1652.57 1467.24 1652.48 C 1466.98 1652.43 1466.98 1652.3 1466.89 1652.06 C 1466.72 1651.6 1466.73 1651.37 1466.36 1651.03 L 1465.99 1651.15 C 1465.29 1652.15 1465.07 1658.22 1463.4 1658.53 C 1462.81 1658.07 1462.91 1656.01 1462.36 1655.16 L 1462.07 1655.11 C 1460.4 1657.29 1463.43 1660.7 1455.11 1659.08 C 1452.47 1658.96 1444.22 1655.39 1442.52 1655.44 C 1428.05 1655.8 1409.35 1648.27 1399.3 1637.97 C 1398.27 1636.92 1394.84 1631.08 1392.32 1631.24 C 1391.15 1632.4 1393.09 1635.6 1391.32 1635.45 C 1390.02 1634.1 1390.65 1630.44 1388.52 1630.59 C 1388.11 1631.15 1388.06 1632.09 1387.65 1632.44 C 1381.03 1631.33 1385.66 1628.26 1380.82 1626.95 C 1376.6 1624.21 1375.58 1621.82 1373.12 1617.11 C 1376.67 1616.96 1383.17 1621.2 1383.99 1623.06 C 1383.19 1623.48 1382.01 1623.49 1381.41 1624.23 L 1381.6 1624.65 L 1381.39 1624.33 C 1382.19 1624.81 1388.21 1626.27 1388.51 1625.41 C 1388.35 1624.83 1387.71 1624.63 1387.55 1624.05 C 1387.5 1623.87 1387.54 1623.67 1387.66 1623.53 C 1389.76 1620.93 1383.39 1618.82 1382.56 1614.51 C 1382.33 1613.29 1377.94 1604.19 1374.58 1608.26 C 1373.33 1608.08 1373.94 1606.07 1371.52 1604.46 C 1371.47 1602.39 1373.59 1603.69 1375.33 1602.81 C 1378.1 1594.9 1380.49 1600.58 1383.18 1591.71 z"/>
<path transform="translate(0,0)" fill="rgb(182,159,160)" fill-opacity="0.396078" d="M 1056.72 1516.66 C 1065.19 1515.17 1076.8 1514.82 1086.12 1513.5 L 1087.58 1513.84 C 1088.45 1513.99 1089.38 1514.05 1090.13 1514.58 C 1089.76 1515.14 1088.93 1515.28 1088.39 1515.63 C 1085.78 1517.28 1092.42 1519.54 1093.11 1519.81 L 1094.15 1520.23 C 1094.23 1520.89 1094.31 1521.56 1094.39 1522.22 C 1095.31 1528.75 1103.89 1528.73 1106.33 1534.96 C 1106.87 1536.32 1104.57 1540.63 1102.83 1540.79 L 1102.67 1540.7 C 1093.02 1547.14 1101.94 1547.64 1108.3 1550.23 C 1104.75 1552.68 1101.8 1552.63 1097.9 1555.93 C 1092.74 1560.29 1092.03 1564.92 1085.04 1567.49 C 1084.2 1567.8 1079.17 1574.94 1077.85 1576.71 C 1073.55 1573.09 1070.34 1570.27 1065.37 1567.36 C 1062.68 1565.78 1059.08 1564.38 1056.89 1562.57 C 1059.65 1555.78 1056.96 1547.74 1050.9 1543.76 C 1043.36 1538.82 1032.46 1539.21 1023.65 1539.86 C 1022.97 1539.66 1022.61 1539.62 1022.71 1538.89 C 1023.22 1538.6 1024.26 1538.36 1024.93 1538.44 C 1036.75 1539.77 1052.44 1535.34 1060.42 1526.41 C 1061.82 1524.84 1058.99 1520.36 1059.02 1519.13 C 1059.63 1518.28 1060.56 1518.06 1061.52 1517.68 L 1061.53 1517.59 L 1061.24 1517.42 L 1061.49 1517.58 L 1060.65 1517.84 C 1059.53 1516.72 1058.48 1516.99 1056.72 1516.66 z"/>
<path transform="translate(0,0)" fill="rgb(189,194,246)" fill-opacity="0.305882" d="M 1482.16 1609.16 C 1481.24 1603.95 1479.38 1599.61 1477.71 1594.59 C 1477.16 1592.9 1476 1592.27 1475.44 1590.71 L 1475.47 1590.66 L 1475.8 1591.26 L 1476.4 1591.36 C 1479.05 1594.03 1480.22 1593.41 1483.88 1594.52 L 1495.51 1606.1 C 1494.89 1619.09 1507.51 1631.88 1499.55 1641.52 C 1497.03 1644.58 1486.83 1646.51 1483.25 1648.74 C 1469.26 1657.96 1463.32 1669.59 1444.07 1665.86 C 1424.48 1662.06 1387.16 1653.07 1377.64 1633.15 C 1379.68 1634.79 1379.39 1634.71 1381.68 1635.88 L 1382.42 1635.25 L 1382.63 1634.4 L 1386.4 1635.41 L 1382 1632.02 C 1377.38 1628.41 1377.3 1630.36 1372.27 1628.51 L 1373.85 1629.54 L 1372.8 1629.59 L 1372.11 1628.89 L 1373.42 1627.79 C 1376.82 1627.98 1377.66 1627.78 1380.82 1626.95 C 1385.66 1628.26 1381.03 1631.33 1387.65 1632.44 C 1388.06 1632.09 1388.11 1631.15 1388.52 1630.59 C 1390.65 1630.44 1390.02 1634.1 1391.32 1635.45 C 1393.09 1635.6 1391.15 1632.4 1392.32 1631.24 C 1394.84 1631.08 1398.27 1636.92 1399.3 1637.97 C 1409.35 1648.27 1428.05 1655.8 1442.52 1655.44 C 1444.22 1655.39 1452.47 1658.96 1455.11 1659.08 C 1463.43 1660.7 1460.4 1657.29 1462.07 1655.11 L 1462.36 1655.16 C 1462.91 1656.01 1462.81 1658.07 1463.4 1658.53 C 1465.07 1658.22 1465.29 1652.15 1465.99 1651.15 L 1466.36 1651.03 C 1466.73 1651.37 1466.72 1651.6 1466.89 1652.06 C 1466.98 1652.3 1466.98 1652.43 1467.24 1652.48 C 1467.71 1652.57 1469.07 1651.98 1469.27 1651.91 C 1469.96 1650.63 1470.34 1648.2 1470.38 1648.15 C 1476.89 1642.17 1476.93 1635.87 1468.33 1643.53 C 1468.51 1643.37 1465.72 1645.1 1465.98 1644.94 C 1466.75 1643.21 1469.15 1638.97 1468.26 1637.16 C 1467.23 1636.93 1467.55 1636.88 1466.63 1637.36 C 1466.53 1637.51 1466.28 1638.38 1466.42 1638.54 C 1467.63 1639.86 1463.6 1649.37 1461.8 1647.06 C 1461.25 1646.36 1462.35 1644.79 1462.38 1643.92 C 1462.25 1643.92 1462.11 1643.92 1461.98 1643.92 C 1462.71 1642.81 1464.15 1642.48 1465.12 1641.6 L 1464.91 1641.3 C 1463.22 1640.68 1462.24 1641.41 1460.64 1640.6 L 1460.67 1640.75 L 1460.68 1640.59 C 1469.54 1638.34 1463.36 1635.96 1463.48 1634.56 C 1467.71 1633.8 1465.56 1634.68 1466.53 1631.76 C 1470.55 1631.15 1473.92 1633.11 1473.16 1626.17 C 1473.34 1626.66 1473.68 1628.77 1474.68 1628.48 C 1475.53 1627.56 1476.26 1625.06 1476.43 1624.91 C 1478.21 1623.29 1479.27 1626.08 1479.53 1621.62 C 1480.2 1622.69 1480.16 1624.54 1480.76 1624.66 C 1481.5 1623.69 1483.61 1620.27 1483.3 1618.99 L 1483.17 1618.9 C 1483.44 1611.77 1482.76 1615.48 1482.16 1609.16 z"/>
<path transform="translate(0,0)" fill="rgb(129,140,248)" fill-opacity="0.121569" d="M 1495.51 1606.1 L 1500.91 1611.29 L 1499.84 1614.06 C 1505.74 1627.43 1521.19 1647.83 1499.04 1652.13 C 1497.77 1652.37 1496.49 1652.58 1495.21 1652.76 L 1494.1 1653.05 C 1482.49 1656.31 1481.5 1660.68 1473.3 1667.41 C 1459.73 1678.55 1424.57 1667.06 1408.1 1663.33 C 1401.49 1660.69 1352.38 1644.79 1363.57 1631.39 C 1367.78 1630.12 1371.68 1631.01 1376.15 1631.5 C 1376.64 1632.05 1377.14 1632.6 1377.64 1633.15 C 1387.16 1653.07 1424.48 1662.06 1444.07 1665.86 C 1463.32 1669.59 1469.26 1657.96 1483.25 1648.74 C 1486.83 1646.51 1497.03 1644.58 1499.55 1641.52 C 1507.51 1631.88 1494.89 1619.09 1495.51 1606.1 z"/>
<path transform="translate(0,0)" fill="rgb(143,138,191)" fill-opacity="0.615686" d="M 1108.3 1550.23 C 1114.21 1551.63 1120.36 1552.96 1126.31 1554.48 L 1125.02 1557.44 C 1122.82 1562.42 1118.02 1566.98 1120.61 1572.25 L 1120.54 1572.22 C 1122.63 1571.14 1131.88 1574.05 1135.07 1574.68 L 1133.54 1575.84 C 1130.37 1578.38 1128.49 1579.35 1124.52 1579.6 C 1119.9 1579.89 1117.08 1582.05 1113.62 1584.15 C 1108.41 1586.53 1106.12 1588.88 1102.44 1593.12 C 1102.02 1593.61 1095.29 1594.5 1096.31 1591.73 C 1096.59 1590.96 1097.79 1586.08 1096.4 1585.62 C 1095.27 1589.13 1094.28 1590.5 1092.38 1593.67 C 1087.19 1586.72 1083.51 1583 1077.85 1576.71 C 1079.17 1574.94 1084.2 1567.8 1085.04 1567.49 C 1092.03 1564.92 1092.74 1560.29 1097.9 1555.93 C 1101.8 1552.63 1104.75 1552.68 1108.3 1550.23 z"/>
<path transform="translate(0,0)" fill="rgb(226,227,249)" fill-opacity="0.0509804" d="M 308.458 1423.63 C 313.387 1428.61 315.283 1433.22 319.294 1438.7 C 332.962 1457.37 340.457 1479.58 358.498 1494.56 C 370.767 1504.75 379.387 1503.61 392.281 1509.95 C 394.716 1511.14 395.835 1518.21 397.678 1519.83 C 401.115 1522.87 408.531 1522.83 408.979 1527.46 L 403.91 1532.28 C 397.285 1529.39 390.82 1534.29 385.224 1531.34 C 384.326 1529.73 379.387 1519.1 379.214 1518.97 C 354.113 1501.13 337.035 1481.37 323.091 1453.83 C 318.59 1444.93 310.622 1432.62 308.458 1423.63 z"/>
<path transform="translate(0,0)" fill="rgb(201,166,142)" fill-opacity="0.45098" d="M 651.025 1349.83 C 656.118 1356.07 666.3 1364.94 669.397 1369.12 C 667.172 1375.13 670.543 1377.77 667.167 1381.16 C 666.995 1380.48 666.73 1379.31 666.584 1378.66 L 666.698 1378.63 C 666.38 1378.93 663.666 1381.55 663.76 1381.32 C 662.048 1385.56 651.484 1387.76 650.362 1389.86 C 650.385 1390.88 651.598 1390.3 651.96 1391.04 C 652.095 1390.29 650.462 1393.49 649.5 1395.49 C 640.194 1388.94 635.248 1382.77 622.919 1379.08 C 623.755 1378.66 624.592 1378.24 625.428 1377.82 L 626.299 1377.43 C 626.249 1377.17 626.2 1376.92 626.151 1376.67 C 626.668 1375.78 628.824 1374.67 629.448 1373.37 C 630.422 1371.48 634.553 1370.05 636.505 1370.05 C 637.242 1370.05 640.422 1370.26 641.021 1370.1 C 646.175 1368.78 648.956 1366.77 652.224 1362.51 C 653.882 1360.35 656.529 1357.39 651.937 1356.09 C 650.288 1358.09 647.062 1364.43 643.511 1363.94 C 637.179 1363.07 640.894 1368.85 635.868 1367.26 C 635.309 1366.65 634.879 1366.19 634.913 1365.35 C 635.057 1361.7 639.899 1359.24 643.055 1359.33 C 644.759 1359.38 650.337 1350.9 651.025 1349.83 z"/>
<path transform="translate(0,0)" fill="rgb(129,140,248)" fill-opacity="0.431373" d="M 648.269 1511.7 C 651.731 1515.81 658.941 1515.59 663.58 1521.1 C 656.156 1521.84 654.711 1519.74 649.364 1523.55 C 643.851 1527.47 645.191 1524.12 641.564 1531.27 C 637.122 1535.04 632.785 1536.69 627.452 1541.63 L 626.653 1542.39 C 617.741 1550.9 600.742 1570.03 598.898 1582.12 L 598.732 1583.15 C 597.974 1584.51 590.895 1594.69 590.327 1594.9 C 589.554 1585.67 596.32 1575.87 593.34 1571.48 C 592.035 1571.15 587.225 1579.5 585.31 1577.44 C 585.96 1574.98 593.319 1571.83 590.569 1569.91 L 589.83 1569.36 C 591.872 1566.19 645.35 1513.68 648.269 1511.7 z"/>
<path transform="translate(0,0)" fill="rgb(201,166,142)" fill-opacity="0.768627" d="M 1214.75 1479.32 C 1220.97 1479.58 1224.35 1477.61 1231.23 1478.26 C 1228.04 1478.65 1228.48 1478.2 1225.8 1479.65 C 1200.61 1493.3 1162.27 1509.44 1133.77 1510.92 L 1133.38 1510.12 C 1136.19 1508.66 1137.98 1507.78 1140.88 1506.56 C 1135.33 1506.79 1128.25 1507.56 1123.91 1510.69 C 1123.29 1510.81 1122.68 1510.92 1122.06 1511.03 L 1121.84 1509.43 L 1120.43 1510.47 L 1121.59 1511.86 L 1123.11 1510.8 C 1124.78 1511.55 1125.77 1511.76 1127.01 1512.91 C 1116.95 1513.35 1108.65 1517.57 1100.93 1511.45 C 1126.22 1507.08 1146.9 1502.9 1171.39 1495.19 C 1184.78 1490.97 1201.52 1483.14 1213.23 1479.75 L 1214.75 1479.32 z"/>
<path transform="translate(0,0)" fill="rgb(56,82,254)" d="M 1385.42 1495.49 L 1389.76 1500.81 C 1385.79 1508.12 1376.31 1513.75 1372.67 1522.22 L 1369.95 1519.8 C 1353.07 1530.45 1336.75 1539.9 1320.15 1551.25 C 1313.57 1555.75 1283.81 1575.98 1279.06 1577.76 C 1286.8 1568.1 1333.29 1541.54 1348.16 1529.33 L 1348.34 1526.23 C 1352.28 1523.02 1372.11 1505.74 1374.47 1504.74 L 1375.44 1507.59 C 1379.04 1503.99 1383.84 1500.05 1385.42 1495.49 z"/>
<path transform="translate(0,0)" fill="rgb(132,139,224)" fill-opacity="0.12549" d="M 943.837 1628 L 942.449 1627.8 C 938.456 1642.09 933.262 1654.57 934.241 1670.09 C 934.711 1677.55 932.376 1688.24 928.447 1694.66 L 927.276 1694.35 C 925.184 1685.28 930.359 1644.4 933.479 1633.48 C 934.443 1630.1 941.39 1628.39 943.452 1621.17 L 945.508 1620.16 L 946.489 1621.79 C 943.912 1665.53 947.39 1712.43 945.703 1755.74 C 941.035 1748.42 948.764 1638.96 943.837 1628 z"/>
<path transform="translate(0,0)" fill="rgb(226,227,249)" fill-opacity="0.764706" d="M 391.717 504.051 C 394.089 505.044 405.833 517.16 407.967 519.554 C 407.126 519.537 403.399 518.896 403.565 518.865 C 403.111 519.541 405.715 521.486 405.464 522.611 C 405.131 524.097 402.844 522.895 402.003 523.014 C 396.23 521.695 392.166 525.478 387.008 526.956 C 384.75 527.562 377.748 527.033 374.452 527.109 L 372.919 527.134 C 384.225 508.648 373.287 514.865 391.717 504.051 z"/>
<path transform="translate(0,0)" fill="rgb(132,139,224)" fill-opacity="0.27451" d="M 589.83 1569.36 L 590.569 1569.91 C 593.319 1571.83 585.96 1574.98 585.31 1577.44 C 587.225 1579.5 592.035 1571.15 593.34 1571.48 C 596.32 1575.87 589.554 1585.67 590.327 1594.9 C 589.764 1597.35 587.769 1601.18 585.708 1602.75 C 584.049 1604.02 588.834 1609.88 586.228 1610.52 C 584.381 1610.97 583.573 1610.11 584.423 1613.04 C 582.524 1613.48 582.786 1612.93 581.232 1613.7 C 581.543 1614.7 582.159 1614.8 581.866 1615.92 C 576.064 1617.34 577.545 1604.51 577.801 1601.5 C 578.341 1595.15 581.791 1592.47 580.279 1585.53 C 579.669 1582.74 582.403 1584.01 577.589 1582.94 L 576.12 1582.61 C 579.555 1578.93 586.036 1572.69 589.83 1569.36 z"/>
<path transform="translate(0,0)" fill="rgb(226,227,249)" fill-opacity="0.807843" d="M 1642.47 1530.63 C 1647.53 1525.31 1655.57 1521.95 1655.24 1532.32 C 1658.68 1534.95 1664.98 1526.97 1668.46 1525.4 L 1668.53 1525.3 L 1668.47 1525.41 C 1668.26 1525.08 1668.05 1524.76 1667.84 1524.43 C 1668.35 1522.1 1672.77 1523.57 1673.73 1523.44 C 1675.81 1520.09 1673.49 1522.51 1678.7 1519.9 C 1674.04 1531.88 1677.03 1529.67 1668.74 1540.36 C 1663.55 1542.23 1661.38 1541.66 1657.91 1545.39 C 1655.25 1544.27 1645.02 1533.31 1642.47 1530.63 z"/>
<path transform="translate(0,0)" fill="rgb(143,138,191)" fill-opacity="0.00784314" d="M 927.96 1564.03 C 938.977 1564.49 949.746 1568.86 960.819 1568.8 C 965.62 1568.77 969.118 1575.53 969.495 1575.76 C 976.339 1572.25 985.519 1562.4 994.662 1560.26 C 997.503 1559.6 1004.72 1555.49 1007.21 1557.42 C 1006.64 1557.7 1006.07 1557.98 1005.5 1558.26 C 983.422 1564.71 964.249 1579.34 953.485 1599.85 C 951.726 1603.2 950.132 1607.23 948.747 1611.13 C 946.184 1607.45 942.229 1598.91 945.365 1596.63 C 952.444 1591.48 947.189 1584.5 947.895 1583.21 C 948.62 1582.87 948.563 1582.8 949.286 1583 C 950.193 1583.96 949.768 1586.23 951.009 1586.51 C 954.947 1587.4 952.093 1594.08 950.547 1595.78 C 949.202 1597.25 945.012 1606.61 948.493 1606.82 C 948.52 1606.2 948.546 1605.59 948.572 1604.97 C 952.058 1600.09 951.7 1597.16 955.988 1592 C 956.955 1589.68 964.994 1581.09 962.363 1577.96 C 956.913 1571.49 949.469 1569.49 941.472 1568.65 C 937.376 1568.22 930.376 1565.46 927.96 1564.03 z"/>
<path transform="translate(0,0)" fill="rgb(129,140,248)" fill-opacity="0.305882" d="M 1362.23 1598.28 C 1368.67 1602.57 1372.66 1597.93 1375.33 1602.81 C 1373.59 1603.69 1371.47 1602.39 1371.52 1604.46 C 1373.94 1606.07 1373.33 1608.08 1374.58 1608.26 C 1377.94 1604.19 1382.33 1613.29 1382.56 1614.51 C 1383.39 1618.82 1389.76 1620.93 1387.66 1623.53 C 1387.54 1623.67 1387.5 1623.87 1387.55 1624.05 C 1387.71 1624.63 1388.35 1624.83 1388.51 1625.41 C 1388.21 1626.27 1382.19 1624.81 1381.39 1624.33 L 1381.6 1624.65 L 1381.41 1624.23 C 1382.01 1623.49 1383.19 1623.48 1383.99 1623.06 C 1383.17 1621.2 1376.67 1616.96 1373.12 1617.11 C 1372.99 1616.99 1371.86 1615.8 1371.7 1615.77 C 1371 1615.68 1368.24 1612.88 1368.2 1612.87 C 1365.72 1612.63 1364.58 1606.05 1362.14 1608.08 C 1358.16 1611.38 1353.52 1613.13 1350.41 1607.57 C 1350.72 1608.12 1349.69 1604.92 1349.88 1605.48 C 1352.11 1603.5 1359.39 1599.71 1362.23 1598.28 z"/>
<path transform="translate(0,0)" fill="rgb(201,166,142)" fill-opacity="0.0823529" d="M 669.397 1369.12 C 677.079 1376.61 684.939 1383.93 692.97 1391.05 C 692.465 1392.42 691.238 1394.12 692.491 1395.4 C 692.437 1395.34 701.969 1401.56 694.348 1401.57 C 690.596 1401.57 689.813 1398.98 687.349 1397.16 C 686.423 1396.48 683.894 1394.33 682.624 1393.86 C 676.467 1393.53 676.897 1385.95 671.979 1385.02 C 668.539 1384.37 668.452 1384.02 667.167 1381.16 C 670.543 1377.77 667.172 1375.13 669.397 1369.12 z"/>
<path transform="translate(0,0)" fill="rgb(182,159,160)" fill-opacity="0.109804" d="M 1023.65 1539.86 C 1032.46 1539.21 1043.36 1538.82 1050.9 1543.76 C 1056.96 1547.74 1059.65 1555.78 1056.89 1562.57 C 1052.03 1560.65 1046.11 1559.24 1041.88 1557.44 C 1042.72 1555.33 1041.29 1555.59 1041.84 1552.99 C 1044.12 1542.22 1030.93 1542.54 1023.65 1539.86 z"/>
<path transform="translate(0,0)" fill="rgb(201,166,142)" fill-opacity="0.0235294" d="M 710.397 1405.92 C 724.906 1415.89 741.659 1428.11 755.911 1438.6 C 751.437 1438.64 747.05 1438.74 742.593 1438.78 C 738.673 1436.49 730.223 1432.55 728.761 1428.06 C 727.368 1423.36 721.992 1420.01 718.359 1416.84 C 712.243 1411.48 710.595 1414.17 710.397 1405.92 z"/>
<path transform="translate(0,0)" fill="rgb(132,139,224)" fill-opacity="0.443137" d="M 663.58 1521.1 C 664.004 1523.71 664.897 1527.1 666.794 1529.6 C 668.99 1532.5 665.418 1531.74 665.591 1532.78 C 665.961 1535.02 665.27 1536.25 662.319 1536.49 C 660.894 1536.61 657.668 1534.24 655.642 1535.53 C 654.581 1536.04 653.973 1537.23 653.318 1538.18 C 650.384 1532.19 653.351 1527.58 645.486 1530.03 L 641.564 1531.27 C 645.191 1524.12 643.851 1527.47 649.364 1523.55 C 654.711 1519.74 656.156 1521.84 663.58 1521.1 z"/>
<path transform="translate(0,0)" fill="rgb(129,140,248)" fill-opacity="0.772549" d="M 1436.66 1547.29 C 1443.92 1554.23 1454.63 1564.43 1461.1 1571.68 C 1459.28 1570.85 1454.82 1569.06 1453.67 1567.4 C 1451.59 1563.81 1446.61 1561.68 1443.93 1559.22 C 1442.11 1557.55 1439.61 1556.67 1437.77 1558.86 C 1434.81 1562.38 1427.93 1558.98 1426.03 1561.21 C 1424.41 1563.1 1424.76 1563.36 1421.98 1561.89 L 1418.91 1560.24 C 1424.44 1555.95 1430.76 1550.79 1436.66 1547.29 z"/>
<path transform="translate(0,0)" fill="rgb(77,93,249)" fill-opacity="0.988235" d="M 1389.76 1500.81 C 1392.23 1502.93 1397.42 1508.73 1399.87 1511.29 C 1393.56 1514.6 1379.77 1521.64 1372.67 1522.22 C 1376.31 1513.75 1385.79 1508.12 1389.76 1500.81 z"/>
<path transform="translate(0,0)" fill="rgb(143,138,191)" fill-opacity="0.101961" d="M 673.836 1433.91 C 675.946 1433.4 674.89 1433.03 676.413 1432.32 C 678.574 1432.76 674.63 1437.01 676.626 1440.74 C 677.892 1443.1 678.068 1453.41 678.282 1456.51 C 678.861 1461.61 677.582 1462.26 682.077 1466.17 C 684.661 1468.41 683.017 1471.94 681.95 1474.43 C 681.851 1474.43 681.751 1474.44 681.651 1474.44 C 681.281 1472.84 680.51 1472.2 679.184 1471.3 L 679.075 1471.33 C 678.312 1470.79 677.396 1469.38 676.682 1468.55 C 675.358 1470 670.589 1490.24 666.654 1493.12 C 666.985 1492.88 660.842 1501.26 661.622 1501.88 C 662.515 1502.01 663.386 1501.36 664.437 1501.41 L 664.229 1501.45 L 664.441 1502.5 C 662.266 1504.68 659.691 1503.56 657.167 1502.8 C 675.75 1478.79 678.195 1463.57 673.836 1433.91 z"/>
<path transform="translate(0,0)" fill="rgb(132,139,224)" fill-opacity="0.631373" d="M 1482.16 1609.16 C 1477.41 1610.06 1477.87 1608.44 1476.37 1604.56 C 1472.82 1605.59 1465.54 1580.27 1465.41 1580.54 C 1465.57 1580.46 1471.07 1582.55 1471.94 1582.82 C 1473.92 1584.09 1481.69 1592.24 1483.88 1594.52 C 1480.22 1593.41 1479.05 1594.03 1476.4 1591.36 L 1475.8 1591.26 L 1475.47 1590.66 L 1475.44 1590.71 C 1476 1592.27 1477.16 1592.9 1477.71 1594.59 C 1479.38 1599.61 1481.24 1603.95 1482.16 1609.16 z"/>
<path transform="translate(0,0)" fill="rgb(201,166,142)" fill-opacity="0.568627" d="M 1086.12 1513.5 C 1090.81 1512.74 1096.08 1512.19 1100.93 1511.45 C 1108.65 1517.57 1116.95 1513.35 1127.01 1512.91 C 1125.59 1519 1100.2 1519.66 1094.15 1520.23 L 1093.11 1519.81 C 1092.42 1519.54 1085.78 1517.28 1088.39 1515.63 C 1088.93 1515.28 1089.76 1515.14 1090.13 1514.58 C 1089.38 1514.05 1088.45 1513.99 1087.58 1513.84 L 1086.12 1513.5 z"/>
<path transform="translate(0,0)" fill="rgb(129,140,248)" fill-opacity="0.596078" d="M 1386.03 1583.44 C 1390.8 1585.97 1393.94 1583.4 1395.71 1588.59 C 1396.9 1592.1 1397.94 1592.02 1400.61 1593.62 C 1400.26 1594.82 1396.85 1596.07 1395.97 1596.51 C 1394.2 1594.09 1392.11 1591.97 1390.39 1589.52 C 1389.95 1588.96 1389.29 1588.63 1388.59 1588.6 C 1386.84 1588.53 1384.37 1590.72 1383.18 1591.71 C 1377.3 1593.53 1377.44 1594 1372.2 1591.9 C 1375.69 1589.76 1382.85 1584.9 1386.03 1583.44 z"/>
<path transform="translate(0,0)" fill="rgb(129,140,248)" fill-opacity="0.490196" d="M 1372.2 1591.9 C 1377.44 1594 1377.3 1593.53 1383.18 1591.71 C 1380.49 1600.58 1378.1 1594.9 1375.33 1602.81 C 1372.66 1597.93 1368.67 1602.57 1362.23 1598.28 C 1364.98 1596.2 1369.18 1593.72 1372.2 1591.9 z"/>
<path transform="translate(0,0)" fill="rgb(201,166,142)" fill-opacity="0.137255" d="M 657.308 1403.12 C 658.11 1403.58 662.428 1406.6 662.411 1406.59 C 666.252 1405.27 663.384 1403.5 668.858 1409.14 C 677.31 1417.84 667.56 1418.23 673.197 1425.29 C 674.106 1426.43 673.49 1429.94 673.417 1431.32 C 666.67 1415.88 666.832 1416.63 657.308 1403.12 z"/>
<path transform="translate(0,0)" fill="rgb(189,194,246)" fill-opacity="0.317647" d="M 1465.98 1644.94 C 1465.72 1645.1 1468.51 1643.37 1468.33 1643.53 C 1476.93 1635.87 1476.89 1642.17 1470.38 1648.15 C 1470.34 1648.2 1469.96 1650.63 1469.27 1651.91 C 1467.93 1649.72 1465.67 1647.58 1465.98 1644.94 z"/>
<path transform="translate(0,0)" fill="rgb(143,138,191)" fill-opacity="0.0156863" d="M 899.157 1556.22 C 900.142 1556.1 900.255 1556.21 901.054 1556.86 C 900.041 1556.72 899.94 1556.81 899.157 1556.22 z"/>
</svg>